<svg version="1.1" id="Layer_1" xmlns="http://www.w3.org/2000/svg" xmlns:xlink="http://www.w3.org/1999/xlink" x="0px" y="0px"
	 width="100%" viewBox="0 0 512 512" enable-background="new 0 0 512 512" xml:space="preserve">
<path fill="#A12116" opacity="1.000000" stroke="none" 
	d="
M278.000000,513.000000 
	C185.355820,513.000000 93.211639,513.000000 1.033728,513.000000 
	C1.033728,342.397461 1.033728,171.794907 1.033728,1.096182 
	C171.560867,1.096182 342.121796,1.096182 512.841370,1.096182 
	C512.841370,171.666550 512.841370,342.333252 512.841370,513.000000 
	C434.794891,513.000000 356.647430,513.000000 278.000000,513.000000 
M232.999664,28.545364 
	C223.806061,29.993874 214.518936,31.008221 205.434723,32.964668 
	C161.833099,42.355049 124.339241,63.332054 92.805031,94.573647 
	C66.934036,120.204575 48.096218,150.429398 36.640511,185.236984 
	C22.737782,227.479736 20.485743,270.269867 31.586056,313.195862 
	C49.854313,383.841034 92.341629,435.288666 158.190826,466.778961 
	C205.448898,489.378693 255.025635,494.418884 306.213074,483.325562 
	C349.909363,473.855652 387.817963,453.476593 419.370209,421.846283 
	C467.359955,373.737854 490.315887,315.646179 487.705597,247.553741 
	C486.468536,215.284485 478.571899,184.817291 464.287170,155.902924 
	C444.473785,115.797699 415.192810,84.303635 377.266846,60.935253 
	C352.269012,45.532665 325.124420,35.500843 296.049927,30.668316 
	C275.394897,27.235209 254.741013,25.858124 232.999664,28.545364 
z"/>
<path fill="#FEFDFD" opacity="1.000000" stroke="none" 
	d="
M233.453003,28.488647 
	C254.741013,25.858124 275.394897,27.235209 296.049927,30.668316 
	C325.124420,35.500843 352.269012,45.532665 377.266846,60.935253 
	C415.192810,84.303635 444.473785,115.797699 464.287170,155.902924 
	C478.571899,184.817291 486.468536,215.284485 487.705597,247.553741 
	C490.315887,315.646179 467.359955,373.737854 419.370209,421.846283 
	C387.817963,453.476593 349.909363,473.855652 306.213074,483.325562 
	C255.025635,494.418884 205.448898,489.378693 158.190826,466.778961 
	C92.341629,435.288666 49.854313,383.841034 31.586056,313.195862 
	C20.485743,270.269867 22.737782,227.479736 36.640511,185.236984 
	C48.096218,150.429398 66.934036,120.204575 92.805031,94.573647 
	C124.339241,63.332054 161.833099,42.355049 205.434723,32.964668 
	C214.518936,31.008221 223.806061,29.993874 233.453003,28.488647 
M143.858566,232.156769 
	C143.858566,232.156769 143.767151,232.170822 144.004730,232.868332 
	C148.003998,233.483475 152.003281,234.098618 156.651642,235.017303 
	C157.119476,234.973068 157.587311,234.928833 158.703918,235.268219 
	C171.175919,238.670929 183.974106,241.189560 196.056808,245.647430 
	C228.168732,257.495087 252.947723,278.250000 268.531433,309.115753 
	C278.098053,328.063782 283.249420,348.239197 284.073120,369.493530 
	C284.200989,372.793701 284.189209,376.140381 288.431488,377.492310 
	C299.760284,381.102600 312.081848,371.524353 311.327209,359.821320 
	C310.098083,340.760315 305.855377,322.383423 299.608826,304.395782 
	C287.987000,270.929291 267.807709,244.783875 235.131775,229.565048 
	C226.325241,225.463425 217.062546,222.341202 207.376892,218.354431 
	C206.881821,218.334976 206.386749,218.315521 205.528122,217.673523 
	C202.010834,216.659195 198.493546,215.644867 194.346741,214.249146 
	C193.865234,214.255951 193.383713,214.262741 192.462982,213.721817 
	C190.635605,213.317673 188.808228,212.913528 186.348648,212.143784 
	C185.872177,212.168961 185.395721,212.194138 184.413742,211.711060 
	C182.271286,211.284424 180.128830,210.857773 177.343536,210.101532 
	C176.871811,210.132187 176.400070,210.162827 175.381805,209.720749 
	C172.916870,209.286224 170.451920,208.851715 167.148270,208.081787 
	C164.742157,208.118347 162.336060,208.154892 159.291992,207.777039 
	C149.259262,207.181641 146.577194,208.433121 143.452332,215.367676 
	C143.408707,215.952072 143.365067,216.536484 142.747726,217.524750 
	C142.396820,219.357025 142.045898,221.189316 141.359589,223.767929 
	C141.458847,224.838867 141.558105,225.909821 141.385773,227.621384 
	C142.194901,229.160034 143.004013,230.698669 143.858566,232.156769 
M190.306442,128.919418 
	C189.533936,128.952209 188.761444,128.985016 187.337204,128.635483 
	C180.131317,128.103012 172.916931,127.089424 165.722702,127.216606 
	C161.333008,127.294205 156.543640,128.282440 153.753738,133.069611 
	C153.753738,133.069611 153.800766,133.362106 153.108978,133.569183 
	C151.987442,136.413025 150.865906,139.256866 149.389282,142.376877 
	C149.217819,142.712097 149.296951,142.970612 149.031311,143.610428 
	C148.654068,145.743881 148.276825,147.877350 147.599243,150.668930 
	C147.688553,152.099014 147.777847,153.529083 147.604660,155.527451 
	C148.299637,157.284348 148.994614,159.041245 149.507996,161.277634 
	C149.719025,161.519989 149.930054,161.762329 150.151917,162.714050 
	C153.347656,166.669373 157.692703,166.124222 162.725922,166.139709 
	C163.819275,166.091827 164.912643,166.043961 166.703323,166.341385 
	C174.134583,167.547394 181.565826,168.753403 189.614578,170.323471 
	C190.781052,170.358017 191.947540,170.392563 193.608780,171.020935 
	C195.071594,171.385483 196.534424,171.750031 198.553482,172.479599 
	C199.415710,172.528870 200.277924,172.578125 201.531189,173.179184 
	C203.026031,173.537064 204.520889,173.894928 206.656937,174.651062 
	C207.150421,174.640945 207.643921,174.630829 208.542374,175.169983 
	C210.032166,175.591721 211.521942,176.013443 213.613312,176.858170 
	C214.092194,176.864502 214.571075,176.870834 215.345673,177.468933 
	C216.569260,177.808456 217.792831,178.147964 219.625641,178.891937 
	C220.102142,178.889526 220.578644,178.887131 221.418427,179.484039 
	C222.133072,179.889404 222.807724,180.402817 223.568222,180.684311 
	C241.020508,187.144318 257.558319,195.455643 272.489136,206.548111 
	C281.721863,213.407303 290.192291,221.292633 299.226044,229.385361 
	C321.056610,253.041489 335.690765,280.578888 344.029510,311.624023 
	C348.365204,327.765778 350.930603,344.117798 351.498505,360.801697 
	C351.720398,367.320343 354.685608,370.958954 360.811127,370.502350 
	C366.334839,370.090637 371.895966,368.770599 377.192383,367.075714 
	C383.867798,364.939484 389.388916,360.809174 389.571106,353.111359 
	C389.787201,343.981506 389.895264,334.715424 388.622803,325.710052 
	C385.311798,302.277222 379.242340,279.469666 370.560883,257.424591 
	C360.100311,230.861816 346.070038,206.513138 324.486816,187.336273 
	C317.502441,181.130615 309.398346,176.185135 301.443512,170.047577 
	C292.041168,164.863586 282.920380,159.054245 273.162048,154.660950 
	C262.073914,149.668945 250.415833,145.942993 238.382904,141.242691 
	C237.891129,141.245575 237.399338,141.248459 236.477142,140.678772 
	C232.648666,139.597931 228.820175,138.517090 224.367523,137.066635 
	C223.894180,137.089661 223.420853,137.112686 222.523804,136.603180 
	C221.013901,136.208313 219.503983,135.813446 217.373550,135.037781 
	C216.899429,135.066010 216.425323,135.094238 215.411774,134.628403 
	C210.607422,133.529922 205.803070,132.431442 200.372940,130.973221 
	C199.902481,131.013672 199.432022,131.054138 198.346298,130.705566 
	C195.897476,130.233582 193.448639,129.761597 190.306442,128.919418 
z"/>
<path fill="#9E251B" opacity="1.000000" stroke="none" 
	d="
M301.806458,170.663208 
	C309.398346,176.185135 317.502441,181.130615 324.486816,187.336273 
	C346.070038,206.513138 360.100311,230.861816 370.560883,257.424591 
	C379.242340,279.469666 385.311798,302.277222 388.622803,325.710052 
	C389.895264,334.715424 389.787201,343.981506 389.571106,353.111359 
	C389.388916,360.809174 383.867798,364.939484 377.192383,367.075714 
	C371.895966,368.770599 366.334839,370.090637 360.811127,370.502350 
	C354.685608,370.958954 351.720398,367.320343 351.498505,360.801697 
	C350.930603,344.117798 348.365204,327.765778 344.029510,311.624023 
	C335.690765,280.578888 321.056610,253.041489 299.092834,228.709122 
	C296.802643,225.022415 294.645630,222.011948 292.302643,218.741898 
	C296.566833,216.397705 299.327332,213.473007 299.015778,208.126862 
	C298.398682,197.538727 298.126648,186.918106 298.193695,176.313965 
	C298.205627,174.422836 300.542877,172.546417 301.806458,170.663208 
z"/>
<path fill="#9D2920" opacity="1.000000" stroke="none" 
	d="
M208.009247,218.769379 
	C217.062546,222.341202 226.325241,225.463425 235.131775,229.565048 
	C267.807709,244.783875 287.987000,270.929291 299.608826,304.395782 
	C305.855377,322.383423 310.098083,340.760315 311.327209,359.821320 
	C312.081848,371.524353 299.760284,381.102600 288.431488,377.492310 
	C284.189209,376.140381 284.200989,372.793701 284.073120,369.493530 
	C283.249420,348.239197 278.098053,328.063782 268.531433,309.115753 
	C252.947723,278.250000 228.168732,257.495087 196.056808,245.647430 
	C183.974106,241.189560 171.175919,238.670929 158.704025,234.854004 
	C161.172363,234.385330 163.807938,233.738174 166.079651,234.379669 
	C175.586777,237.064301 185.083084,239.855392 194.400940,243.127060 
	C210.577988,248.807114 226.030930,256.168945 238.586517,268.046539 
	C245.465424,274.553986 254.143768,279.483826 258.364563,288.666931 
	C259.151398,290.378784 261.069824,291.570526 262.465973,293.002289 
	C263.010681,292.762451 263.555389,292.522583 264.100098,292.282715 
	C263.778778,289.134064 264.472900,285.294617 262.906952,282.992645 
	C260.319061,279.188446 259.936249,275.412231 259.988312,271.216217 
	C260.062622,265.225708 259.751678,259.219269 260.086212,253.246597 
	C260.356598,248.418808 258.261536,245.148239 254.380554,243.011536 
	C243.943817,237.265579 233.414886,231.684967 222.870743,226.137146 
	C217.978958,223.563309 212.966827,221.218185 208.009247,218.769379 
z"/>
<path fill="#94231B" opacity="1.000000" stroke="none" 
	d="
M207.693069,218.561905 
	C212.966827,221.218185 217.978958,223.563309 222.870743,226.137146 
	C233.414886,231.684967 243.943817,237.265579 254.380554,243.011536 
	C258.261536,245.148239 260.356598,248.418808 260.086212,253.246597 
	C259.751678,259.219269 260.062622,265.225708 259.988312,271.216217 
	C259.936249,275.412231 260.319061,279.188446 262.906952,282.992645 
	C264.472900,285.294617 263.778778,289.134064 264.100098,292.282715 
	C263.555389,292.522583 263.010681,292.762451 262.465973,293.002289 
	C261.069824,291.570526 259.151398,290.378784 258.364563,288.666931 
	C254.143768,279.483826 245.465424,274.553986 238.586517,268.046539 
	C226.030930,256.168945 210.577988,248.807114 194.400940,243.127060 
	C185.083084,239.855392 175.586777,237.064301 166.079651,234.379669 
	C163.807938,233.738174 161.172363,234.385330 158.379639,234.662201 
	C157.587311,234.928833 157.119476,234.973068 156.196594,234.531601 
	C151.750092,233.420868 147.758621,232.795853 143.767151,232.170822 
	C143.767151,232.170822 143.858566,232.156769 143.886932,231.832245 
	C143.162659,229.998734 142.410019,228.489746 141.657364,226.980759 
	C141.558105,225.909821 141.458847,224.838867 141.817078,223.276489 
	C142.623520,220.897003 142.972473,219.008942 143.321442,217.120880 
	C143.365067,216.536484 143.408707,215.952072 144.013763,215.096985 
	C148.426926,209.683624 154.206802,209.003174 159.929947,208.191437 
	C162.336060,208.154892 164.742157,208.118347 167.670685,208.580460 
	C170.771515,209.450577 173.349930,209.822021 175.928345,210.193481 
	C176.400070,210.162827 176.871811,210.132187 177.767303,210.588318 
	C180.433792,211.456497 182.676529,211.837891 184.919250,212.219299 
	C185.395721,212.194138 185.872177,212.168961 186.767242,212.633942 
	C189.091278,213.505905 190.996750,213.887726 192.902206,214.269562 
	C193.383713,214.262741 193.865234,214.255951 194.783691,214.747681 
	C198.777634,216.262848 202.334656,217.279465 205.891678,218.296082 
	C206.386749,218.315521 206.881821,218.334976 207.693069,218.561905 
z"/>
<path fill="#99251D" opacity="1.000000" stroke="none" 
	d="
M301.625000,170.355392 
	C300.542877,172.546417 298.205627,174.422836 298.193695,176.313965 
	C298.126648,186.918106 298.398682,197.538727 299.015778,208.126862 
	C299.327332,213.473007 296.566833,216.397705 292.302643,218.741898 
	C294.645630,222.011948 296.802643,225.022415 298.982300,228.375092 
	C290.192291,221.292633 281.721863,213.407303 272.489136,206.548111 
	C257.558319,195.455643 241.020508,187.144318 223.568222,180.684311 
	C222.807724,180.402817 222.133072,179.889404 221.505646,178.984833 
	C222.383316,178.544189 223.250839,178.410568 223.952072,178.691711 
	C229.511444,180.920456 231.237045,180.453110 232.752579,174.851059 
	C233.772751,171.080124 234.038498,166.978348 233.893250,163.052261 
	C233.726974,158.557541 234.796387,155.052734 238.310318,152.054794 
	C240.483841,150.200394 242.037872,147.619888 243.565399,145.740204 
	C241.664719,144.042252 240.335114,142.854462 239.005508,141.666672 
	C250.415833,145.942993 262.073914,149.668945 273.162048,154.660950 
	C282.920380,159.054245 292.041168,164.863586 301.625000,170.355392 
z"/>
<path fill="#92231C" opacity="1.000000" stroke="none" 
	d="
M238.694214,141.454681 
	C240.335114,142.854462 241.664719,144.042252 243.565399,145.740204 
	C242.037872,147.619888 240.483841,150.200394 238.310318,152.054794 
	C234.796387,155.052734 233.726974,158.557541 233.893250,163.052261 
	C234.038498,166.978348 233.772751,171.080124 232.752579,174.851059 
	C231.237045,180.453110 229.511444,180.920456 223.952072,178.691711 
	C223.250839,178.410568 222.383316,178.544189 221.324005,178.685181 
	C220.578644,178.887131 220.102142,178.889526 219.282150,178.376526 
	C217.642426,177.533127 216.346191,177.205139 215.049957,176.877167 
	C214.571075,176.870834 214.092194,176.864502 213.212143,176.359253 
	C211.253113,175.447128 209.695267,175.033905 208.137405,174.620697 
	C207.643921,174.630829 207.150421,174.640945 206.220184,174.180634 
	C204.235687,173.349289 202.687912,172.988342 201.140152,172.627396 
	C200.277924,172.578125 199.415710,172.528870 198.133652,171.916718 
	C196.180557,171.044937 194.647278,170.736023 193.114014,170.427109 
	C191.947540,170.392563 190.781052,170.358017 189.183197,169.800308 
	C182.910370,167.853531 177.098984,166.278976 171.207764,165.105179 
	C169.596954,164.784210 167.746490,165.666168 166.005997,165.996094 
	C164.912643,166.043961 163.819275,166.091827 162.207596,165.612885 
	C157.839874,164.058929 153.990479,163.031799 150.141083,162.004684 
	C149.930054,161.762329 149.719025,161.519989 149.672806,160.608795 
	C149.180801,158.279694 148.523972,156.619431 147.867142,154.959167 
	C147.777847,153.529083 147.688553,152.099014 148.048065,150.171310 
	C148.873474,147.499939 149.250092,145.326172 149.626694,143.152420 
	C149.296951,142.970612 149.217819,142.712097 149.850571,142.014709 
	C151.474838,138.889069 152.637802,136.125595 153.800766,133.362106 
	C153.800766,133.362106 153.753738,133.069611 154.256317,132.972076 
	C161.228531,129.295166 167.933060,128.408112 175.319275,129.744873 
	C179.366089,130.477280 183.754532,129.321930 187.988937,129.017807 
	C188.761444,128.985016 189.533936,128.952209 190.749863,129.444672 
	C193.381027,133.119354 196.152618,132.235977 198.961563,131.094604 
	C199.432022,131.054138 199.902481,131.013672 200.788971,131.495041 
	C205.828201,134.439514 210.504044,136.612198 215.951202,135.122467 
	C216.425323,135.094238 216.899429,135.066010 217.774994,135.534058 
	C219.766800,136.398788 221.357162,136.767258 222.947510,137.135712 
	C223.420853,137.112686 223.894180,137.089661 224.790497,137.579315 
	C229.111496,139.145126 233.009537,140.198227 236.907562,141.251343 
	C237.399338,141.248459 237.891129,141.245575 238.694214,141.454681 
z"/>
<path fill="#99251D" opacity="1.000000" stroke="none" 
	d="
M187.663071,128.826645 
	C183.754532,129.321930 179.366089,130.477280 175.319275,129.744873 
	C167.933060,128.408112 161.228531,129.295166 154.399353,132.933578 
	C156.543640,128.282440 161.333008,127.294205 165.722702,127.216606 
	C172.916931,127.089424 180.131317,128.103012 187.663071,128.826645 
z"/>
<path fill="#99251D" opacity="1.000000" stroke="none" 
	d="
M166.354660,166.168732 
	C167.746490,165.666168 169.596954,164.784210 171.207764,165.105179 
	C177.098984,166.278976 182.910370,167.853531 188.874451,169.618286 
	C181.565826,168.753403 174.134583,167.547394 166.354660,166.168732 
z"/>
<path fill="#9D2920" opacity="1.000000" stroke="none" 
	d="
M159.610962,207.984238 
	C154.206802,209.003174 148.426926,209.683624 144.238647,214.892227 
	C146.577194,208.433121 149.259262,207.181641 159.610962,207.984238 
z"/>
<path fill="#99251D" opacity="1.000000" stroke="none" 
	d="
M215.681488,134.875427 
	C210.504044,136.612198 205.828201,134.439514 201.101868,131.674911 
	C205.803070,132.431442 210.607422,133.529922 215.681488,134.875427 
z"/>
<path fill="#9D2920" opacity="1.000000" stroke="none" 
	d="
M143.885941,232.519577 
	C147.758621,232.795853 151.750092,233.420868 155.872055,234.379822 
	C152.003281,234.098618 148.003998,233.483475 143.885941,232.519577 
z"/>
<path fill="#99251D" opacity="1.000000" stroke="none" 
	d="
M236.692352,140.965057 
	C233.009537,140.198227 229.111496,139.145126 225.102585,137.764130 
	C228.820175,138.517090 232.648666,139.597931 236.692352,140.965057 
z"/>
<path fill="#99251D" opacity="1.000000" stroke="none" 
	d="
M150.146500,162.359375 
	C153.990479,163.031799 157.839874,164.058929 161.843094,165.412521 
	C157.692703,166.124222 153.347656,166.669373 150.146500,162.359375 
z"/>
<path fill="#9D2920" opacity="1.000000" stroke="none" 
	d="
M205.709900,217.984802 
	C202.334656,217.279465 198.777634,216.262848 195.098450,214.938385 
	C198.493546,215.644867 202.010834,216.659195 205.709900,217.984802 
z"/>
<path fill="#9D2920" opacity="1.000000" stroke="none" 
	d="
M175.655075,209.957123 
	C173.349930,209.822021 170.771515,209.450577 168.090042,208.748169 
	C170.451920,208.851715 172.916870,209.286224 175.655075,209.957123 
z"/>
<path fill="#99251D" opacity="1.000000" stroke="none" 
	d="
M198.653931,130.900085 
	C196.152618,132.235977 193.381027,133.119354 191.096558,129.629776 
	C193.448639,129.761597 195.897476,130.233582 198.653931,130.900085 
z"/>
<path fill="#99251D" opacity="1.000000" stroke="none" 
	d="
M153.454865,133.465637 
	C152.637802,136.125595 151.474838,138.889069 150.028107,141.876617 
	C150.865906,139.256866 151.987442,136.413025 153.454865,133.465637 
z"/>
<path fill="#9D2920" opacity="1.000000" stroke="none" 
	d="
M184.666504,211.965179 
	C182.676529,211.837891 180.433792,211.456497 178.088715,210.753113 
	C180.128830,210.857773 182.271286,211.284424 184.666504,211.965179 
z"/>
<path fill="#9D2920" opacity="1.000000" stroke="none" 
	d="
M192.682587,213.995697 
	C190.996750,213.887726 189.091278,213.505905 187.083328,212.816742 
	C188.808228,212.913528 190.635605,213.317673 192.682587,213.995697 
z"/>
<path fill="#9D2920" opacity="1.000000" stroke="none" 
	d="
M143.034576,217.322815 
	C142.972473,219.008942 142.623520,220.897003 141.984772,222.903320 
	C142.045898,221.189316 142.396820,219.357025 143.034576,217.322815 
z"/>
<path fill="#99251D" opacity="1.000000" stroke="none" 
	d="
M149.329010,143.381424 
	C149.250092,145.326172 148.873474,147.499939 148.198227,149.842255 
	C148.276825,147.877350 148.654068,145.743881 149.329010,143.381424 
z"/>
<path fill="#99251D" opacity="1.000000" stroke="none" 
	d="
M208.339890,174.895340 
	C209.695267,175.033905 211.253113,175.447128 212.911346,176.147766 
	C211.521942,176.013443 210.032166,175.591721 208.339890,174.895340 
z"/>
<path fill="#99251D" opacity="1.000000" stroke="none" 
	d="
M222.735657,136.869446 
	C221.357162,136.767258 219.766800,136.398788 218.085266,135.724457 
	C219.503983,135.813446 221.013901,136.208313 222.735657,136.869446 
z"/>
<path fill="#9D2920" opacity="1.000000" stroke="none" 
	d="
M141.521576,227.301071 
	C142.410019,228.489746 143.162659,229.998734 143.864227,231.872528 
	C143.004013,230.698669 142.194901,229.160034 141.521576,227.301071 
z"/>
<path fill="#99251D" opacity="1.000000" stroke="none" 
	d="
M215.197815,177.173050 
	C216.346191,177.205139 217.642426,177.533127 218.977539,178.174286 
	C217.792831,178.147964 216.569260,177.808456 215.197815,177.173050 
z"/>
<path fill="#99251D" opacity="1.000000" stroke="none" 
	d="
M201.335663,172.903290 
	C202.687912,172.988342 204.235687,173.349289 205.899597,173.981506 
	C204.520889,173.894928 203.026031,173.537064 201.335663,172.903290 
z"/>
<path fill="#99251D" opacity="1.000000" stroke="none" 
	d="
M147.735901,155.243317 
	C148.523972,156.619431 149.180801,158.279694 149.763611,160.369049 
	C148.994614,159.041245 148.299637,157.284348 147.735901,155.243317 
z"/>
<path fill="#99251D" opacity="1.000000" stroke="none" 
	d="
M193.361389,170.724030 
	C194.647278,170.736023 196.180557,171.044937 197.855530,171.734207 
	C196.534424,171.750031 195.071594,171.385483 193.361389,170.724030 
z"/>
</svg>