<svg version="1.1" id="Layer_1" xmlns="http://www.w3.org/2000/svg" xmlns:xlink="http://www.w3.org/1999/xlink" x="0px" y="0px"
	 width="100%" viewBox="0 0 512 512" enable-background="new 0 0 512 512" xml:space="preserve">
<path fill="#010101" opacity="1.000000" stroke="none" 
	d="
M1.000000,191.000000 
	C1.000000,127.333336 1.000000,64.166664 1.000000,1.000000 
	C171.666672,1.000000 342.333344,1.000000 513.000000,1.000000 
	C513.000000,171.666672 513.000000,342.333344 513.000000,513.000000 
	C342.333344,513.000000 171.666672,513.000000 1.000000,513.000000 
	C1.000000,405.833344 1.000000,298.666656 1.000000,191.000000 
M222.858963,388.097473 
	C222.981689,388.253174 223.141785,388.339996 223.492172,388.577301 
	C223.492172,388.577301 223.748688,388.652924 224.339493,389.118011 
	C225.801117,389.348755 227.262314,389.777405 228.724426,389.780518 
	C249.347946,389.824371 269.971680,389.834259 290.595062,389.763000 
	C292.173004,389.757538 293.748627,389.079102 295.638275,388.588074 
	C295.638275,388.588074 295.804901,388.295013 295.946655,388.209778 
	C295.946655,388.209778 296.179077,387.977875 296.602203,387.810577 
	C296.602203,387.810577 296.865387,387.439362 297.443604,387.045135 
	C297.661194,383.020020 297.878784,378.994934 297.927155,374.250183 
	C296.021484,373.147308 294.125580,371.105286 292.208618,371.085297 
	C270.462799,370.858521 248.713760,370.925293 226.965622,370.955902 
	C223.244537,370.961121 220.890411,373.063263 220.602188,376.631195 
	C220.354309,379.699646 220.961868,382.837158 221.239380,386.413208 
	C221.566742,386.743134 221.894104,387.073090 222.410202,387.704987 
	C222.410202,387.704987 222.737183,387.846039 222.858963,388.097473 
M266.269501,81.362396 
	C270.296417,84.601196 273.706390,84.581055 276.738007,79.855019 
	C278.001038,77.886024 280.026825,76.406281 281.913177,74.493774 
	C284.243866,78.888985 286.310394,82.786049 288.407623,86.741043 
	C291.125580,86.082703 293.498444,85.507957 296.075867,84.883652 
	C293.757599,80.472618 291.891937,76.210030 289.379883,72.370316 
	C287.399536,69.343300 288.009399,67.459526 290.368408,65.144531 
	C293.399109,62.170372 296.080139,58.839886 299.082550,55.471352 
	C296.238647,54.299515 293.841797,53.311871 291.495209,52.344952 
	C289.978760,54.025112 288.751343,55.369083 287.542114,56.729206 
	C286.281281,58.147358 285.037994,59.581089 283.641968,61.173496 
	C278.077606,50.079910 278.077606,50.079910 270.891113,52.087894 
	C273.338959,57.130116 275.763336,62.123955 278.203186,67.149719 
	C274.099823,71.641258 270.091248,76.029083 265.037109,80.456818 
	C265.037109,70.362221 265.037109,60.267628 265.037109,49.911884 
	C262.475739,50.114014 259.893921,50.317757 256.829407,50.559593 
	C256.829407,61.717506 256.829407,72.304688 256.829407,84.434555 
	C260.186493,83.016464 263.117950,81.778168 266.269501,81.362396 
M428.557495,234.705978 
	C428.438110,235.862946 428.215881,237.019791 428.214569,238.176895 
	C428.188812,261.001831 428.175842,283.826843 428.213318,306.651703 
	C428.215698,308.115143 428.648560,309.577850 428.867004,311.851532 
	C429.990845,315.664062 430.665009,319.687378 432.332397,323.245178 
	C435.773010,330.586670 440.511078,332.821442 448.536987,331.736786 
	C460.383392,330.135834 469.327820,324.038300 475.502228,313.947601 
	C483.929382,300.175293 485.897614,284.922455 484.702911,269.212677 
	C483.456238,252.819122 479.040466,237.442459 467.800812,224.795273 
	C458.938660,214.823273 446.881348,211.323776 436.665924,215.580002 
	C420.880859,182.847107 411.866241,169.182190 390.552643,149.375397 
	C343.297791,105.461288 287.330170,87.191826 223.679565,97.497917 
	C154.196457,108.748390 103.544746,146.972702 72.066017,210.226990 
	C71.294937,211.776428 69.106171,213.442078 67.443512,213.596222 
	C54.011959,214.841354 44.487972,221.737549 37.967869,233.206024 
	C24.540316,256.824341 27.389872,296.344360 44.025990,317.608765 
	C49.878181,325.089050 57.163906,330.235321 66.763382,331.761566 
	C72.860527,332.730988 78.211578,331.125336 80.658157,325.478790 
	C83.181778,319.654419 85.289780,313.287079 85.766335,307.019409 
	C86.585075,296.251251 86.241150,285.368774 85.921654,274.547974 
	C85.648262,265.288879 87.216553,256.508789 89.684418,247.575531 
	C116.180496,151.664078 208.442032,107.103981 285.701141,118.968819 
	C350.643768,128.942184 397.325958,164.421860 427.111633,222.674271 
	C428.979279,226.326813 430.282410,229.889923 428.557495,234.705978 
M170.274628,162.773727 
	C150.661179,176.373672 134.672287,193.473297 123.148682,214.287949 
	C99.718964,256.608185 95.410339,301.166290 109.742455,347.343872 
	C123.674965,392.233978 148.260071,429.829834 187.939575,456.027893 
	C223.220261,479.321655 261.213318,485.409576 300.244629,466.731079 
	C343.933228,445.823883 369.491302,409.512970 382.047211,363.456207 
	C382.954346,360.128693 382.945221,356.551392 383.505676,351.898010 
	C381.621002,353.091614 380.921478,353.296509 380.628021,353.759033 
	C378.676697,356.834625 376.679901,359.893311 374.940460,363.089478 
	C360.844147,388.992004 342.849945,411.558502 319.058197,429.304901 
	C281.896545,457.023895 239.162384,456.359192 203.318558,427.010101 
	C177.725342,406.054260 161.276794,378.889160 151.187607,347.709717 
	C142.242065,320.064636 140.402176,292.028595 150.207092,264.335541 
	C165.972488,219.807724 197.337845,192.202805 244.388733,186.600952 
	C291.003357,181.051010 327.406311,200.369003 352.518463,240.022385 
	C360.764923,253.044006 367.457123,267.045929 375.608521,280.133392 
	C379.490509,286.366089 384.519653,292.225616 390.126221,296.953186 
	C396.602753,302.414368 403.349548,301.007843 408.225983,294.105347 
	C410.763062,290.514221 412.866089,286.343719 414.060730,282.122406 
	C420.503235,259.357544 416.134918,237.758591 404.915833,217.663773 
	C358.414093,134.373138 250.892639,107.203636 170.274628,162.773727 
M342.926941,265.511749 
	C323.780396,259.290009 303.930450,257.138458 284.003540,255.652298 
	C282.424713,255.534561 279.681213,257.728699 279.117645,259.400726 
	C274.459656,273.220886 274.527710,287.207825 279.165283,301.015869 
	C279.700165,302.608429 282.758575,304.741455 284.182861,304.438934 
	C305.205139,299.973663 325.954956,294.504211 345.173950,284.531433 
	C349.382172,282.347778 354.935944,280.018219 354.622223,274.609833 
	C354.287964,268.847198 348.178101,267.737946 342.926941,265.511749 
M193.478867,264.923615 
	C187.703598,267.037384 181.778946,268.822510 176.196335,271.360107 
	C170.935333,273.751526 165.720947,276.503235 161.058456,279.885468 
	C155.780594,283.714142 156.192627,287.993896 161.841522,291.183746 
	C165.421555,293.205353 169.315430,295.177246 173.298218,295.892395 
	C191.108231,299.090240 209.005463,301.800049 226.860107,304.753143 
	C231.218048,305.473938 232.983658,302.842468 233.906738,299.406067 
	C237.344177,286.609467 237.255524,273.769012 233.963318,260.948792 
	C232.810257,256.458618 230.159561,254.723480 225.469360,256.066925 
	C215.086899,259.040863 204.651855,261.831238 193.478867,264.923615 
M210.864517,67.145081 
	C210.433884,73.559006 210.003250,79.972939 209.556030,86.633812 
	C212.529694,86.633812 214.943008,86.633812 218.140503,86.633812 
	C218.140503,79.608917 218.140503,72.726784 218.140503,65.844658 
	C218.532776,65.760551 218.925064,65.676437 219.317337,65.592331 
	C223.435196,71.978409 227.553070,78.364494 232.044037,85.329201 
	C234.854843,77.367294 237.401093,70.154808 240.290604,61.969952 
	C242.503021,69.857811 244.400040,76.621170 246.359558,83.607391 
	C249.298553,82.907181 251.793228,82.312836 254.495605,81.668999 
	C250.028000,67.017273 245.733566,52.933437 241.104660,37.752663 
	C237.254044,48.635857 233.826981,58.321980 230.156448,68.696213 
	C224.238876,59.334400 218.740829,50.636269 212.562988,40.862694 
	C211.963745,50.153374 211.445953,58.180984 210.864517,67.145081 
M435.325073,157.765320 
	C436.707703,156.844116 438.038177,155.829605 439.483887,155.021286 
	C442.420319,153.379517 445.165375,153.130615 447.252106,156.440994 
	C449.425171,159.888321 447.227325,161.483276 444.641632,163.159821 
	C438.844330,166.918793 433.140411,170.821732 427.207581,174.793823 
	C429.015442,177.124298 430.514343,179.056534 432.173706,181.195572 
	C438.048065,177.354416 443.689697,173.596542 449.406189,169.956223 
	C452.316345,168.103012 454.975311,168.141693 457.138794,171.349701 
	C459.530762,174.896515 457.027588,176.446884 454.605469,178.065277 
	C448.854492,181.907822 443.085266,185.723068 437.072174,189.716156 
	C438.965637,192.149445 440.541077,194.174026 442.086365,196.159897 
	C447.697601,192.465363 452.838959,189.082809 457.976837,185.695007 
	C458.948364,185.054367 459.912659,184.402283 460.869049,183.739258 
	C468.372650,178.537262 467.706635,169.067642 459.522461,164.844849 
	C458.389221,164.260117 457.168152,163.845551 456.077484,163.389694 
	C456.206024,154.634796 454.799622,152.479294 446.316742,149.313446 
	C447.748901,148.680176 448.756317,148.234741 449.833374,147.758499 
	C447.827545,145.336884 446.364655,143.570755 444.743011,141.612976 
	C435.559174,147.706970 426.609253,153.645721 417.326599,159.805267 
	C419.110291,162.158615 420.670410,164.217026 422.257111,166.310471 
	C426.637421,163.430939 430.665619,160.782898 435.325073,157.765320 
M42.879314,174.977264 
	C38.867157,172.496048 34.855003,170.014832 30.715847,167.455078 
	C29.350229,170.417297 28.275141,172.749329 27.141619,175.208115 
	C39.754818,183.056198 52.103436,190.739670 64.779938,198.627151 
	C66.196327,195.938889 67.395432,193.663025 68.725189,191.139206 
	C63.342487,187.732590 58.248020,184.508392 53.073944,181.233810 
	C56.360306,176.040070 59.346561,171.320602 62.433460,166.442078 
	C68.002655,169.872452 73.187599,173.066162 78.538826,176.362289 
	C79.963234,173.759064 81.208786,171.482727 82.603500,168.933762 
	C69.828392,160.978745 57.325985,153.193527 44.578979,145.256012 
	C43.282352,148.070816 42.147896,150.533585 41.001423,153.022446 
	C45.951794,156.130554 50.560581,159.024216 55.390835,162.056915 
	C52.591488,166.559021 50.095142,170.839233 47.257919,174.880096 
	C46.775394,175.567337 44.830898,175.228104 42.879314,174.977264 
M320.860321,84.732620 
	C315.902344,85.333717 311.017395,85.730949 307.611267,80.119850 
	C316.357452,77.428215 324.553101,74.906021 332.731293,72.389191 
	C329.471954,60.742298 319.906830,55.453156 309.403198,59.151325 
	C300.198334,62.392220 295.653625,72.501572 299.370331,81.468719 
	C303.425903,91.253311 315.794952,95.667786 325.791718,90.827858 
	C325.436249,89.077652 325.327087,87.189194 324.596924,85.583054 
	C324.287170,84.901634 322.674561,84.812469 320.860321,84.732620 
M168.290405,92.557251 
	C168.437286,91.270676 168.147705,89.677017 168.801804,88.747299 
	C173.088821,82.653984 177.579742,76.704140 181.995270,70.719391 
	C173.687271,63.566410 163.005356,64.382004 156.420151,72.543236 
	C150.210831,80.238625 151.428848,90.975403 159.173767,96.816475 
	C167.983810,103.460831 180.401428,100.504539 187.679733,89.805122 
	C185.908722,88.224854 184.105209,86.615585 182.132156,84.855034 
	C178.560440,89.113823 175.174393,93.350250 168.290405,92.557251 
M430.999969,127.716843 
	C425.788910,117.774590 415.949768,113.679192 407.060760,117.752541 
	C398.550079,121.652504 394.953522,131.007629 398.519257,139.970047 
	C402.119995,149.020416 412.455719,153.782410 421.462402,150.540634 
	C430.254395,147.376144 434.139771,138.570175 430.999969,127.716843 
M71.000549,153.424377 
	C76.366226,159.450226 82.971931,161.065598 90.396271,158.255447 
	C97.748795,155.472488 101.841446,149.878998 102.279312,141.982849 
	C102.687775,134.617142 99.429314,129.147583 92.817635,125.841949 
	C85.939629,122.403160 77.318230,124.335548 71.953491,130.374191 
	C66.105316,136.957031 65.623924,144.744751 71.000549,153.424377 
M119.256767,114.457558 
	C121.774315,118.304153 121.362770,121.978157 117.609703,124.472237 
	C113.429680,127.250038 110.913826,123.993607 108.581505,121.009598 
	C104.717682,116.066124 100.839699,111.133713 97.657097,107.075684 
	C95.367500,108.944839 93.348213,110.593323 91.324127,112.245728 
	C95.367516,117.428879 99.397675,122.509521 103.330750,127.664253 
	C106.399193,131.685822 109.883789,135.203369 115.412796,133.801926 
	C120.939713,132.401016 124.748108,128.873947 125.656555,122.465439 
	C130.459091,126.850403 130.955872,120.607506 133.994812,119.763710 
	C126.966904,110.796120 120.164406,102.116150 113.505913,93.619949 
	C111.242592,95.575562 109.385681,97.180008 107.342644,98.945274 
	C111.387672,104.141182 115.149567,108.973396 119.256767,114.457558 
M143.826080,82.484360 
	C138.894531,78.805199 130.105637,81.182526 125.996269,87.241753 
	C123.846642,90.411362 123.389595,93.638527 125.286522,97.060005 
	C127.226585,100.559311 130.087982,102.578651 134.207169,102.140106 
	C137.002808,101.842484 139.758331,100.988243 142.548630,100.896843 
	C143.925125,100.851753 145.339737,101.970367 146.737091,102.562431 
	C146.016922,103.953377 145.621857,106.110359 144.511383,106.581650 
	C141.904266,107.688126 138.955002,107.988411 135.830719,108.684868 
	C135.371780,110.341591 134.817368,112.343010 134.264145,114.340096 
	C142.344879,116.446724 149.809067,113.624336 153.574905,107.268867 
	C155.625381,103.808388 155.609146,100.312668 153.516006,96.909988 
	C151.384644,93.445122 148.255432,91.959839 144.195877,92.709396 
	C141.751144,93.160805 139.332962,93.981827 136.880875,94.078362 
	C135.532150,94.131447 134.137924,93.027962 132.764206,92.445938 
	C133.612549,91.035873 134.152313,88.917320 135.381622,88.381889 
	C137.222656,87.580002 139.548172,87.890411 141.805313,87.717178 
	C142.328033,86.257919 142.881912,84.711639 143.826080,82.484360 
M343.598328,102.838341 
	C348.826233,102.999062 352.551758,100.843460 354.401581,95.814247 
	C356.247437,90.795723 353.352814,87.622986 350.010193,84.649628 
	C348.894989,83.657585 347.357330,82.950447 346.649963,81.740547 
	C345.861877,80.392570 345.799805,78.620148 345.421692,77.032486 
	C347.220001,77.049431 349.329926,76.484650 350.734375,77.236916 
	C352.335419,78.094482 353.307556,80.126236 354.615204,81.723656 
	C356.612976,81.033180 358.617584,80.340347 360.629700,79.644913 
	C357.703949,72.056335 351.444733,67.908478 344.519012,68.783951 
	C337.184784,69.711052 333.603882,77.928825 338.146820,83.747871 
	C339.863098,85.946213 342.346893,87.544907 344.066376,89.741386 
	C344.998016,90.931435 345.057495,92.804237 345.510376,94.369049 
	C343.812897,94.588699 341.700745,95.544281 340.506195,94.871262 
	C338.183746,93.562729 336.376129,91.340439 334.148041,89.307632 
	C332.595093,89.947578 330.655090,90.747025 328.724060,91.542778 
	C331.247650,98.229958 334.630402,100.892624 343.598328,102.838341 
M383.680664,95.801056 
	C374.914032,99.749664 370.707977,107.868317 373.050720,116.319260 
	C375.364410,124.665459 383.373047,130.454056 391.689636,129.646805 
	C391.689636,127.426704 391.689636,125.191963 391.689636,123.029610 
	C383.558197,120.712471 380.656494,118.029701 380.558685,112.657722 
	C380.477661,108.208130 382.573883,104.939537 386.655823,103.268799 
	C391.632812,101.231728 395.840942,103.500206 401.223633,110.831253 
	C403.265228,110.046051 405.353027,109.243057 407.436493,108.441757 
	C403.286377,97.763016 395.454041,93.459053 383.680664,95.801056 
M196.992874,70.684723 
	C193.998596,71.464165 191.004318,72.243607 187.647186,73.117500 
	C188.393646,75.628258 189.015091,77.718544 189.687653,79.980728 
	C195.131683,78.471809 199.999725,77.122536 205.060806,75.719749 
	C204.378159,73.303314 203.810272,71.293129 203.170517,69.028496 
	C201.191025,69.534500 199.468933,69.974716 196.992874,70.684723 
M363.925140,101.386314 
	C361.193542,101.920868 358.461975,102.455429 355.554291,103.024445 
	C356.352081,106.240799 356.941345,108.616463 357.644806,111.452515 
	C360.392029,110.496094 362.829071,109.647652 365.484741,108.723106 
	C364.971741,106.340866 364.523285,104.258339 363.925140,101.386314 
M257.692993,40.457153 
	C256.048767,44.548893 260.400269,44.834164 261.627502,47.469646 
	C263.718964,45.491734 265.454163,43.850716 267.257477,42.145287 
	C265.298401,40.309105 263.559967,38.679737 261.605408,36.847805 
	C260.599609,37.768147 259.417969,38.849380 257.692993,40.457153 
z"/>
<path fill="#FDFDFD" opacity="1.000000" stroke="none" 
	d="
M170.553223,162.544708 
	C250.892639,107.203636 358.414093,134.373138 404.915833,217.663773 
	C416.134918,237.758591 420.503235,259.357544 414.060730,282.122406 
	C412.866089,286.343719 410.763062,290.514221 408.225983,294.105347 
	C403.349548,301.007843 396.602753,302.414368 390.126221,296.953186 
	C384.519653,292.225616 379.490509,286.366089 375.608521,280.133392 
	C367.457123,267.045929 360.764923,253.044006 352.518463,240.022385 
	C327.406311,200.369003 291.003357,181.051010 244.388733,186.600952 
	C197.337845,192.202805 165.972488,219.807724 150.207092,264.335541 
	C140.402176,292.028595 142.242065,320.064636 151.187607,347.709717 
	C161.276794,378.889160 177.725342,406.054260 203.318558,427.010101 
	C239.162384,456.359192 281.896545,457.023895 319.058197,429.304901 
	C342.849945,411.558502 360.844147,388.992004 374.940460,363.089478 
	C376.679901,359.893311 378.676697,356.834625 380.628021,353.759033 
	C380.921478,353.296509 381.621002,353.091614 383.505676,351.898010 
	C382.945221,356.551392 382.954346,360.128693 382.047211,363.456207 
	C369.491302,409.512970 343.933228,445.823883 300.244629,466.731079 
	C261.213318,485.409576 223.220261,479.321655 187.939575,456.027893 
	C148.260071,429.829834 123.674965,392.233978 109.742455,347.343872 
	C95.410339,301.166290 99.718964,256.608185 123.148682,214.287949 
	C134.672287,193.473297 150.661179,176.373672 170.553223,162.544708 
z"/>
<path fill="#FD6600" opacity="1.000000" stroke="none" 
	d="
M428.925812,233.974045 
	C430.282410,229.889923 428.979279,226.326813 427.111633,222.674271 
	C397.325958,164.421860 350.643768,128.942184 285.701141,118.968819 
	C208.442032,107.103981 116.180496,151.664078 89.684418,247.575531 
	C87.216553,256.508789 85.648262,265.288879 85.921654,274.547974 
	C86.241150,285.368774 86.585075,296.251251 85.766335,307.019409 
	C85.289780,313.287079 83.181778,319.654419 80.658157,325.478790 
	C78.211578,331.125336 72.860527,332.730988 66.763382,331.761566 
	C57.163906,330.235321 49.878181,325.089050 44.025990,317.608765 
	C27.389872,296.344360 24.540316,256.824341 37.967869,233.206024 
	C44.487972,221.737549 54.011959,214.841354 67.443512,213.596222 
	C69.106171,213.442078 71.294937,211.776428 72.066017,210.226990 
	C103.544746,146.972702 154.196457,108.748390 223.679565,97.497917 
	C287.330170,87.191826 343.297791,105.461288 390.552643,149.375397 
	C411.866241,169.182190 420.880859,182.847107 436.665924,215.580002 
	C446.881348,211.323776 458.938660,214.823273 467.800812,224.795273 
	C479.040466,237.442459 483.456238,252.819122 484.702911,269.212677 
	C485.897614,284.922455 483.929382,300.175293 475.502228,313.947601 
	C469.327820,324.038300 460.383392,330.135834 448.536987,331.736786 
	C440.511078,332.821442 435.773010,330.586670 432.332397,323.245178 
	C430.665009,319.687378 429.990845,315.664062 429.168396,311.145966 
	C429.620850,309.635468 429.902985,308.830627 429.903809,308.025543 
	C429.928192,284.573029 429.939575,261.120453 429.882660,237.668045 
	C429.879669,236.435944 429.258972,235.205338 428.925812,233.974045 
z"/>
<path fill="#FC6600" opacity="1.000000" stroke="none" 
	d="
M343.287018,265.658325 
	C348.178101,267.737946 354.287964,268.847198 354.622223,274.609833 
	C354.935944,280.018219 349.382172,282.347778 345.173950,284.531433 
	C325.954956,294.504211 305.205139,299.973663 284.182861,304.438934 
	C282.758575,304.741455 279.700165,302.608429 279.165283,301.015869 
	C274.527710,287.207825 274.459656,273.220886 279.117645,259.400726 
	C279.681213,257.728699 282.424713,255.534561 284.003540,255.652298 
	C303.930450,257.138458 323.780396,259.290009 343.287018,265.658325 
z"/>
<path fill="#FC6600" opacity="1.000000" stroke="none" 
	d="
M193.858551,264.810059 
	C204.651855,261.831238 215.086899,259.040863 225.469360,256.066925 
	C230.159561,254.723480 232.810257,256.458618 233.963318,260.948792 
	C237.255524,273.769012 237.344177,286.609467 233.906738,299.406067 
	C232.983658,302.842468 231.218048,305.473938 226.860107,304.753143 
	C209.005463,301.800049 191.108231,299.090240 173.298218,295.892395 
	C169.315430,295.177246 165.421555,293.205353 161.841522,291.183746 
	C156.192627,287.993896 155.780594,283.714142 161.058456,279.885468 
	C165.720947,276.503235 170.935333,273.751526 176.196335,271.360107 
	C181.778946,268.822510 187.703598,267.037384 193.858551,264.810059 
z"/>
<path fill="#FD6600" opacity="1.000000" stroke="none" 
	d="
M221.191177,385.944153 
	C220.961868,382.837158 220.354309,379.699646 220.602188,376.631195 
	C220.890411,373.063263 223.244537,370.961121 226.965622,370.955902 
	C248.713760,370.925293 270.462799,370.858521 292.208618,371.085297 
	C294.125580,371.105286 296.021484,373.147308 297.732452,374.908264 
	C297.313629,379.523987 297.089508,383.481689 296.865387,387.439362 
	C296.865387,387.439362 296.602203,387.810577 296.245117,387.735962 
	C295.888000,387.661346 295.570374,387.940399 295.570374,387.940399 
	C295.570374,387.940399 295.804901,388.295013 295.804901,388.295013 
	C295.804901,388.295013 295.638275,388.588074 295.016602,388.464844 
	C271.485504,388.277527 248.576111,388.209259 225.666687,388.170563 
	C225.027618,388.169495 224.388031,388.485016 223.748688,388.652924 
	C223.748688,388.652924 223.492172,388.577301 223.493134,388.243713 
	C223.494110,387.910126 223.139084,387.607483 223.139084,387.607483 
	C223.139084,387.607483 222.737183,387.846039 222.737183,387.846039 
	C222.737183,387.846039 222.410202,387.704987 222.428604,387.293732 
	C222.028397,386.569702 221.609787,386.256927 221.191177,385.944153 
z"/>
<path fill="#F7F7F7" opacity="1.000000" stroke="none" 
	d="
M210.896332,66.676834 
	C211.445953,58.180984 211.963745,50.153374 212.562988,40.862694 
	C218.740829,50.636269 224.238876,59.334400 230.156448,68.696213 
	C233.826981,58.321980 237.254044,48.635857 241.104660,37.752663 
	C245.733566,52.933437 250.028000,67.017273 254.495605,81.668999 
	C251.793228,82.312836 249.298553,82.907181 246.359558,83.607391 
	C244.400040,76.621170 242.503021,69.857811 240.290604,61.969952 
	C237.401093,70.154808 234.854843,77.367294 232.044037,85.329201 
	C227.553070,78.364494 223.435196,71.978409 219.317337,65.592331 
	C218.925064,65.676437 218.532776,65.760551 218.140503,65.844658 
	C218.140503,72.726784 218.140503,79.608917 218.140503,86.633812 
	C214.943008,86.633812 212.529694,86.633812 209.556030,86.633812 
	C210.003250,79.972939 210.433884,73.559006 210.896332,66.676834 
z"/>
<path fill="#F6F6F6" opacity="1.000000" stroke="none" 
	d="
M435.009430,157.950089 
	C430.665619,160.782898 426.637421,163.430939 422.257111,166.310471 
	C420.670410,164.217026 419.110291,162.158615 417.326599,159.805267 
	C426.609253,153.645721 435.559174,147.706970 444.743011,141.612976 
	C446.364655,143.570755 447.827545,145.336884 449.833374,147.758499 
	C448.756317,148.234741 447.748901,148.680176 446.316742,149.313446 
	C454.799622,152.479294 456.206024,154.634796 456.077484,163.389694 
	C457.168152,163.845551 458.389221,164.260117 459.522461,164.844849 
	C467.706635,169.067642 468.372650,178.537262 460.869049,183.739258 
	C459.912659,184.402283 458.948364,185.054367 457.976837,185.695007 
	C452.838959,189.082809 447.697601,192.465363 442.086365,196.159897 
	C440.541077,194.174026 438.965637,192.149445 437.072174,189.716156 
	C443.085266,185.723068 448.854492,181.907822 454.605469,178.065277 
	C457.027588,176.446884 459.530762,174.896515 457.138794,171.349701 
	C454.975311,168.141693 452.316345,168.103012 449.406189,169.956223 
	C443.689697,173.596542 438.048065,177.354416 432.173706,181.195572 
	C430.514343,179.056534 429.015442,177.124298 427.207581,174.793823 
	C433.140411,170.821732 438.844330,166.918793 444.641632,163.159821 
	C447.227325,161.483276 449.425171,159.888321 447.252106,156.440994 
	C445.165375,153.130615 442.420319,153.379517 439.483887,155.021286 
	C438.038177,155.829605 436.707703,156.844116 435.009430,157.950089 
z"/>
<path fill="#F8F8F8" opacity="1.000000" stroke="none" 
	d="
M43.220570,175.170181 
	C44.830898,175.228104 46.775394,175.567337 47.257919,174.880096 
	C50.095142,170.839233 52.591488,166.559021 55.390835,162.056915 
	C50.560581,159.024216 45.951794,156.130554 41.001423,153.022446 
	C42.147896,150.533585 43.282352,148.070816 44.578979,145.256012 
	C57.325985,153.193527 69.828392,160.978745 82.603500,168.933762 
	C81.208786,171.482727 79.963234,173.759064 78.538826,176.362289 
	C73.187599,173.066162 68.002655,169.872452 62.433460,166.442078 
	C59.346561,171.320602 56.360306,176.040070 53.073944,181.233810 
	C58.248020,184.508392 63.342487,187.732590 68.725189,191.139206 
	C67.395432,193.663025 66.196327,195.938889 64.779938,198.627151 
	C52.103436,190.739670 39.754818,183.056198 27.141619,175.208115 
	C28.275141,172.749329 29.350229,170.417297 30.715847,167.455078 
	C34.855003,170.014832 38.867157,172.496048 43.220570,175.170181 
z"/>
<path fill="#F6F6F6" opacity="1.000000" stroke="none" 
	d="
M321.257202,84.593369 
	C322.674561,84.812469 324.287170,84.901634 324.596924,85.583054 
	C325.327087,87.189194 325.436249,89.077652 325.791718,90.827858 
	C315.794952,95.667786 303.425903,91.253311 299.370331,81.468719 
	C295.653625,72.501572 300.198334,62.392220 309.403198,59.151325 
	C319.906830,55.453156 329.471954,60.742298 332.731293,72.389191 
	C324.553101,74.906021 316.357452,77.428215 307.611267,80.119850 
	C311.017395,85.730949 315.902344,85.333717 321.257202,84.593369 
M311.472015,72.033844 
	C315.264648,70.922073 319.057281,69.810295 323.120850,68.619095 
	C320.473022,64.876144 316.976074,64.186333 313.276550,65.251511 
	C309.643494,66.297562 307.212158,68.841736 306.363007,73.286301 
	C308.140625,72.837502 309.394836,72.520851 311.472015,72.033844 
z"/>
<path fill="#F7F7F7" opacity="1.000000" stroke="none" 
	d="
M168.650879,92.672691 
	C175.174393,93.350250 178.560440,89.113823 182.132156,84.855034 
	C184.105209,86.615585 185.908722,88.224854 187.679733,89.805122 
	C180.401428,100.504539 167.983810,103.460831 159.173767,96.816475 
	C151.428848,90.975403 150.210831,80.238625 156.420151,72.543236 
	C163.005356,64.382004 173.687271,63.566410 181.995270,70.719391 
	C177.579742,76.704140 173.088821,82.653984 168.801804,88.747299 
	C168.147705,89.677017 168.437286,91.270676 168.650879,92.672691 
M160.293121,84.735657 
	C160.613861,85.433693 160.934616,86.131721 161.502335,87.367195 
	C165.171600,82.484718 168.534744,78.009598 172.160858,73.184532 
	C163.998627,72.585938 160.322647,76.155090 160.293121,84.735657 
z"/>
<path fill="#F6F6F6" opacity="1.000000" stroke="none" 
	d="
M431.101562,128.090332 
	C434.139771,138.570175 430.254395,147.376144 421.462402,150.540634 
	C412.455719,153.782410 402.119995,149.020416 398.519257,139.970047 
	C394.953522,131.007629 398.550079,121.652504 407.060760,117.752541 
	C415.949768,113.679192 425.788910,117.774590 431.101562,128.090332 
M404.919525,135.113846 
	C406.211914,142.374023 413.525604,144.925766 417.876068,143.623474 
	C422.471985,142.247696 425.558472,137.482712 424.718140,132.882904 
	C423.737213,127.513336 419.091400,123.697220 413.814056,123.926163 
	C408.406403,124.160759 405.264740,127.778511 404.919525,135.113846 
z"/>
<path fill="#F7F7F7" opacity="1.000000" stroke="none" 
	d="
M70.783104,153.125275 
	C65.623924,144.744751 66.105316,136.957031 71.953491,130.374191 
	C77.318230,124.335548 85.939629,122.403160 92.817635,125.841949 
	C99.429314,129.147583 102.687775,134.617142 102.279312,141.982849 
	C101.841446,149.878998 97.748795,155.472488 90.396271,158.255447 
	C82.971931,161.065598 76.366226,159.450226 70.783104,153.125275 
M89.363686,132.726501 
	C87.915695,132.445419 86.466888,131.922012 85.019859,131.926895 
	C79.874146,131.944229 75.517296,135.994949 74.934998,141.101089 
	C74.359627,146.146500 77.245415,150.464050 81.986259,151.650803 
	C86.828316,152.862885 92.171700,150.022919 94.043579,145.156326 
	C95.996666,140.078568 94.400726,136.104858 89.363686,132.726501 
z"/>
<path fill="#F7F7F7" opacity="1.000000" stroke="none" 
	d="
M119.084106,114.131577 
	C115.149567,108.973396 111.387672,104.141182 107.342644,98.945274 
	C109.385681,97.180008 111.242592,95.575562 113.505913,93.619949 
	C120.164406,102.116150 126.966904,110.796120 133.994812,119.763710 
	C130.955872,120.607506 130.459091,126.850403 125.656555,122.465439 
	C124.748108,128.873947 120.939713,132.401016 115.412796,133.801926 
	C109.883789,135.203369 106.399193,131.685822 103.330750,127.664253 
	C99.397675,122.509521 95.367516,117.428879 91.324127,112.245728 
	C93.348213,110.593323 95.367500,108.944839 97.657097,107.075684 
	C100.839699,111.133713 104.717682,116.066124 108.581505,121.009598 
	C110.913826,123.993607 113.429680,127.250038 117.609703,124.472237 
	C121.362770,121.978157 121.774315,118.304153 119.084106,114.131577 
z"/>
<path fill="#F6F6F6" opacity="1.000000" stroke="none" 
	d="
M266.082642,80.416916 
	C270.091248,76.029083 274.099823,71.641258 278.203186,67.149719 
	C275.763336,62.123955 273.338959,57.130116 270.891113,52.087894 
	C278.077606,50.079910 278.077606,50.079910 283.641968,61.173496 
	C285.037994,59.581089 286.281281,58.147358 287.542114,56.729206 
	C288.751343,55.369083 289.978760,54.025112 291.495209,52.344952 
	C293.841797,53.311871 296.238647,54.299515 299.082550,55.471352 
	C296.080139,58.839886 293.399109,62.170372 290.368408,65.144531 
	C288.009399,67.459526 287.399536,69.343300 289.379883,72.370316 
	C291.891937,76.210030 293.757599,80.472618 296.075867,84.883652 
	C293.498444,85.507957 291.125580,86.082703 288.407623,86.741043 
	C286.310394,82.786049 284.243866,78.888985 281.913177,74.493774 
	C280.026825,76.406281 278.001038,77.886024 276.738007,79.855019 
	C273.706390,84.581055 270.296417,84.601196 266.168762,80.931816 
	C266.068024,80.501236 266.082642,80.416916 266.082642,80.416916 
z"/>
<path fill="#F6F6F6" opacity="1.000000" stroke="none" 
	d="
M143.630936,82.824860 
	C142.881912,84.711639 142.328033,86.257919 141.805313,87.717178 
	C139.548172,87.890411 137.222656,87.580002 135.381622,88.381889 
	C134.152313,88.917320 133.612549,91.035873 132.764206,92.445938 
	C134.137924,93.027962 135.532150,94.131447 136.880875,94.078362 
	C139.332962,93.981827 141.751144,93.160805 144.195877,92.709396 
	C148.255432,91.959839 151.384644,93.445122 153.516006,96.909988 
	C155.609146,100.312668 155.625381,103.808388 153.574905,107.268867 
	C149.809067,113.624336 142.344879,116.446724 134.264145,114.340096 
	C134.817368,112.343010 135.371780,110.341591 135.830719,108.684868 
	C138.955002,107.988411 141.904266,107.688126 144.511383,106.581650 
	C145.621857,106.110359 146.016922,103.953377 146.737091,102.562424 
	C145.339737,101.970367 143.925125,100.851753 142.548630,100.896843 
	C139.758331,100.988243 137.002808,101.842484 134.207169,102.140106 
	C130.087982,102.578651 127.226585,100.559311 125.286522,97.060005 
	C123.389595,93.638527 123.846642,90.411362 125.996269,87.241753 
	C130.105637,81.182526 138.894531,78.805199 143.630936,82.824860 
z"/>
<path fill="#F6F6F6" opacity="1.000000" stroke="none" 
	d="
M343.193817,102.812263 
	C334.630402,100.892624 331.247650,98.229958 328.724060,91.542778 
	C330.655090,90.747025 332.595093,89.947578 334.148041,89.307632 
	C336.376129,91.340439 338.183746,93.562729 340.506195,94.871262 
	C341.700745,95.544281 343.812897,94.588699 345.510376,94.369049 
	C345.057495,92.804237 344.998016,90.931435 344.066376,89.741386 
	C342.346893,87.544907 339.863098,85.946213 338.146820,83.747871 
	C333.603882,77.928825 337.184784,69.711052 344.519012,68.783951 
	C351.444733,67.908478 357.703949,72.056335 360.629700,79.644913 
	C358.617584,80.340347 356.612976,81.033180 354.615204,81.723656 
	C353.307556,80.126236 352.335419,78.094482 350.734375,77.236916 
	C349.329926,76.484650 347.220001,77.049431 345.421692,77.032486 
	C345.799805,78.620148 345.861877,80.392570 346.649963,81.740547 
	C347.357330,82.950447 348.894989,83.657585 350.010193,84.649628 
	C353.352814,87.622986 356.247437,90.795723 354.401581,95.814247 
	C352.551758,100.843460 348.826233,102.999062 343.193817,102.812263 
z"/>
<path fill="#F5F5F5" opacity="1.000000" stroke="none" 
	d="
M384.066803,95.663589 
	C395.454041,93.459053 403.286377,97.763016 407.436493,108.441757 
	C405.353027,109.243057 403.265228,110.046051 401.223633,110.831253 
	C395.840942,103.500206 391.632812,101.231728 386.655823,103.268799 
	C382.573883,104.939537 380.477661,108.208130 380.558685,112.657722 
	C380.656494,118.029701 383.558197,120.712471 391.689636,123.029610 
	C391.689636,125.191963 391.689636,127.426704 391.689636,129.646805 
	C383.373047,130.454056 375.364410,124.665459 373.050720,116.319260 
	C370.707977,107.868317 374.914032,99.749664 384.066803,95.663589 
z"/>
<path fill="#F5F5F5" opacity="1.000000" stroke="none" 
	d="
M265.559875,80.436867 
	C266.082642,80.416916 266.068024,80.501236 266.058716,80.520554 
	C263.117950,81.778168 260.186493,83.016464 256.829407,84.434555 
	C256.829407,72.304688 256.829407,61.717506 256.829407,50.559593 
	C259.893921,50.317757 262.475739,50.114014 265.037109,49.911884 
	C265.037109,60.267628 265.037109,70.362221 265.559875,80.436867 
z"/>
<path fill="#CC5D04" opacity="1.000000" stroke="none" 
	d="
M428.741638,234.340012 
	C429.258972,235.205338 429.879669,236.435944 429.882660,237.668045 
	C429.939575,261.120453 429.928192,284.573029 429.903809,308.025543 
	C429.902985,308.830627 429.620850,309.635468 429.175507,310.740662 
	C428.648560,309.577850 428.215698,308.115143 428.213318,306.651703 
	C428.175842,283.826843 428.188812,261.001831 428.214569,238.176895 
	C428.215881,237.019791 428.438110,235.862946 428.741638,234.340012 
z"/>
<path fill="#C65A02" opacity="1.000000" stroke="none" 
	d="
M224.044098,388.885468 
	C224.388031,388.485016 225.027618,388.169495 225.666687,388.170563 
	C248.576111,388.209259 271.485504,388.277527 294.860107,388.527557 
	C293.748627,389.079102 292.173004,389.757538 290.595062,389.763000 
	C269.971680,389.834259 249.347946,389.824371 228.724426,389.780518 
	C227.262314,389.777405 225.801117,389.348755 224.044098,388.885468 
z"/>
<path fill="#F3F3F3" opacity="1.000000" stroke="none" 
	d="
M197.369843,70.549820 
	C199.468933,69.974716 201.191025,69.534500 203.170517,69.028496 
	C203.810272,71.293129 204.378159,73.303314 205.060806,75.719749 
	C199.999725,77.122536 195.131683,78.471809 189.687653,79.980728 
	C189.015091,77.718544 188.393646,75.628258 187.647186,73.117500 
	C191.004318,72.243607 193.998596,71.464165 197.369843,70.549820 
z"/>
<path fill="#F4F4F4" opacity="1.000000" stroke="none" 
	d="
M363.999969,101.781067 
	C364.523285,104.258339 364.971741,106.340866 365.484741,108.723106 
	C362.829071,109.647652 360.392029,110.496094 357.644806,111.452515 
	C356.941345,108.616463 356.352081,106.240799 355.554291,103.024445 
	C358.461975,102.455429 361.193542,101.920868 363.999969,101.781067 
z"/>
<path fill="#F6F6F6" opacity="1.000000" stroke="none" 
	d="
M257.964661,40.193886 
	C259.417969,38.849380 260.599609,37.768147 261.605408,36.847805 
	C263.559967,38.679737 265.298401,40.309105 267.257477,42.145287 
	C265.454163,43.850716 263.718964,45.491734 261.627502,47.469646 
	C260.400269,44.834164 256.048767,44.548893 257.964661,40.193886 
z"/>
<path fill="#C65A02" opacity="1.000000" stroke="none" 
	d="
M297.154480,387.242249 
	C297.089508,383.481689 297.313629,379.523987 297.817078,375.268066 
	C297.878784,378.994934 297.661194,383.020020 297.154480,387.242249 
z"/>
<path fill="#C65A02" opacity="1.000000" stroke="none" 
	d="
M221.215271,386.178680 
	C221.609787,386.256927 222.028397,386.569702 222.334244,387.142761 
	C221.894104,387.073090 221.566742,386.743134 221.215271,386.178680 
z"/>
<path fill="#C65A02" opacity="1.000000" stroke="none" 
	d="
M222.798065,387.971741 
	C222.737183,387.846039 223.139084,387.607483 223.139084,387.607483 
	C223.139084,387.607483 223.494110,387.910126 223.416672,388.134033 
	C223.141785,388.339996 222.981689,388.253174 222.798065,387.971741 
z"/>
<path fill="#C65A02" opacity="1.000000" stroke="none" 
	d="
M295.875793,388.252380 
	C295.804901,388.295013 295.570374,387.940399 295.570374,387.940399 
	C295.570374,387.940399 295.888000,387.661346 296.033539,387.819611 
	C296.179077,387.977875 295.946655,388.209778 295.875793,388.252380 
z"/>
<path fill="#101010" opacity="1.000000" stroke="none" 
	d="
M311.060547,72.119019 
	C309.394836,72.520851 308.140625,72.837502 306.363007,73.286301 
	C307.212158,68.841736 309.643494,66.297562 313.276550,65.251511 
	C316.976074,64.186333 320.473022,64.876144 323.120850,68.619095 
	C319.057281,69.810295 315.264648,70.922073 311.060547,72.119019 
z"/>
<path fill="#0D0D0D" opacity="1.000000" stroke="none" 
	d="
M160.225266,84.358215 
	C160.322647,76.155090 163.998627,72.585938 172.160858,73.184532 
	C168.534744,78.009598 165.171600,82.484718 161.502335,87.367195 
	C160.934616,86.131721 160.613861,85.433693 160.225266,84.358215 
z"/>
<path fill="#050505" opacity="1.000000" stroke="none" 
	d="
M404.861694,134.707825 
	C405.264740,127.778511 408.406403,124.160759 413.814056,123.926163 
	C419.091400,123.697220 423.737213,127.513336 424.718140,132.882904 
	C425.558472,137.482712 422.471985,142.247696 417.876068,143.623474 
	C413.525604,144.925766 406.211914,142.374023 404.861694,134.707825 
z"/>
<path fill="#060606" opacity="1.000000" stroke="none" 
	d="
M89.726135,132.885895 
	C94.400726,136.104858 95.996666,140.078568 94.043579,145.156326 
	C92.171700,150.022919 86.828316,152.862885 81.986259,151.650803 
	C77.245415,150.464050 74.359627,146.146500 74.934998,141.101089 
	C75.517296,135.994949 79.874146,131.944229 85.019859,131.926895 
	C86.466888,131.922012 87.915695,132.445419 89.726135,132.885895 
z"/>
</svg>