<?xml version="1.0" encoding="UTF-8"?>
<svg version="1.1" xmlns="http://www.w3.org/2000/svg" width="400" height="400">
<path d="M0 0 C132 0 264 0 400 0 C400 132 400 264 400 400 C268 400 136 400 0 400 C0 268 0 136 0 0 Z " fill="#EE36DB" transform="translate(0,0)"/>
<path d="M0 0 C28.71 0 57.42 0 87 0 C85.87197232 10.15224913 85.87197232 10.15224913 84.625 13.625 C84.39039063 14.29789063 84.15578125 14.97078125 83.9140625 15.6640625 C83.18400394 17.52976771 82.38446239 19.36823307 81.5625 21.1953125 C79.73343238 25.43301024 78.57493973 29.8011507 77.375 34.25 C74.62910493 44.18188452 71.42525863 53.93066185 68.07177734 63.67285156 C66.0000272 69.74793556 64.24894629 75.70212192 63 82 C63.78761719 81.39414063 64.57523437 80.78828125 65.38671875 80.1640625 C65.9065332 79.76421143 66.42634766 79.36436035 66.96191406 78.95239258 C68.12665173 78.05642785 69.29136469 77.16043099 70.45605469 76.2644043 C73.45060534 73.96068765 76.44550017 71.65742251 79.44140625 69.35546875 C80.54429279 68.50784107 81.64715765 67.66018518 82.75 66.8125 C83.29769043 66.39162109 83.84538086 65.97074219 84.40966797 65.53710938 C87.38799123 63.24650639 90.35516663 60.9426066 93.3125 58.625 C98.18917092 54.8210164 103.14840692 51.12769917 108.10522461 47.42919922 C112.60200478 44.06874521 117.03741786 40.64533687 121.3984375 37.109375 C123 36 123 36 125 36 C125 35.34 125 34.68 125 34 C126.32 33.67 127.64 33.34 129 33 C129 32.34 129 31.68 129 31 C129.99 31 130.98 31 132 31 C132.3853894 32.08099976 132.3853894 32.08099976 132.77856445 33.18383789 C133.95426424 36.47754376 135.13335226 39.77002701 136.3125 43.0625 C136.91868164 44.7630957 136.91868164 44.7630957 137.53710938 46.49804688 C139.53902384 52.08062136 141.62111471 57.5686896 144 63 C144.5024036 64.42954453 144.98537652 65.86626651 145.4375 67.3125 C146.48393187 70.53899826 147.65008492 73.67442575 148.9375 76.8125 C150.41030576 80.41948468 151.68745396 84.03953457 152.875 87.75 C154.79830824 93.68917584 157.24622117 99.29367424 159.828125 104.96875 C161 108 161 108 161 112 C158.51351611 113.84710232 156.15729842 114.94280057 153.25 116 C152.13625 116.495 152.13625 116.495 151 117 C150.67 117.99 150.34 118.98 150 120 C147.41927097 122.32265612 146.54823932 123 143 123 C142.65388672 122.01773438 142.65388672 122.01773438 142.30078125 121.015625 C140.5030057 115.98469578 138.6134354 111.03235773 136.5 106.125 C134.26061649 100.84939713 132.55308728 95.51930819 130.9921875 90.0078125 C130.06775388 86.96008714 130.06775388 86.96008714 128.55078125 84.109375 C126.76550058 80.5298198 125.53150371 76.92563996 124.3125 73.125 C124.08755859 72.43664062 123.86261719 71.74828125 123.63085938 71.0390625 C123.08307032 69.36073008 122.54094107 67.68055209 122 66 C118.36521302 67.66411934 115.21203166 69.84118326 111.9375 72.125 C111.07161255 72.72876465 111.07161255 72.72876465 110.18823242 73.34472656 C105.80114062 76.41394009 101.46004226 79.54324755 97.140625 82.70703125 C94.67796732 84.5050164 92.20912159 86.29298682 89.734375 88.07421875 C79.77669033 95.23786085 79.77669033 95.23786085 69.9375 102.5625 C64.99475536 106.29038465 59.98289274 109.91295416 54.9375 113.5 C54.19814209 114.02924072 53.45878418 114.55848145 52.69702148 115.10375977 C52.00165283 115.59545654 51.30628418 116.08715332 50.58984375 116.59375 C49.96972412 117.03396484 49.34960449 117.47417969 48.71069336 117.92773438 C47 119 47 119 44 120 C41.8037049 118.59166619 39.83930111 117.18346343 37.8125 115.5625 C37.25369141 115.12873047 36.69488281 114.69496094 36.11914062 114.24804688 C34.73891168 113.17453547 33.36849461 112.0884306 32 111 C33.12598979 104.87593694 35.0493708 99.00724599 36.875 93.0625 C37.22691406 91.89525391 37.57882813 90.72800781 37.94140625 89.52539062 C38.46154297 87.82866211 38.46154297 87.82866211 38.9921875 86.09765625 C39.46180908 84.55863647 39.46180908 84.55863647 39.94091797 82.98852539 C41 80 41 80 42.56811523 76.87280273 C43.79314074 74.41502351 44.45820055 72.60144133 44.91796875 69.9375 C46.16746508 63.78138212 48.27548434 57.93259769 50.3125 52 C53.8293578 41.73101488 56.93209407 31.43088016 60 21 C43.17 21 26.34 21 9 21 C1 5 1 5 0 0 Z " fill="#FDF8FC" transform="translate(105,172)"/>
<path d="M0 0 C0.66 0 1.32 0 2 0 C2.16604736 0.55872803 2.33209473 1.11745605 2.50317383 1.69311523 C3.27143292 4.27503073 4.04195514 6.85626579 4.8125 9.4375 C5.20405273 10.75524414 5.20405273 10.75524414 5.60351562 12.09960938 C7.29853398 17.7705967 9.09238187 23.39707969 11 29 C15.37503759 41.86348261 19.70300399 54.81201597 23 68 C45.44 68 67.88 68 91 68 C90 74 90 74 82 89 C57.58 89 33.16 89 8 89 C2.41095331 76.70409727 2.41095331 76.70409727 1.42578125 72.03125 C0.04854433 66.03973856 -1.8107545 60.30840709 -3.8125 54.5 C-6.47693769 46.6388895 -9.05435037 38.76374931 -11.4375 30.8125 C-11.68411377 29.99394531 -11.93072754 29.17539063 -12.18481445 28.33203125 C-12.80970679 26.22638193 -13.40805027 24.11508402 -14 22 C-14.41958984 20.6078125 -14.41958984 20.6078125 -14.84765625 19.1875 C-15 17 -15 17 -13.8125 15.04296875 C-13.214375 14.43066406 -12.61625 13.81835938 -12 13.1875 C-11.35804688 12.50945312 -10.71609375 11.83140625 -10.0546875 11.1328125 C-9.03761719 10.07707031 -9.03761719 10.07707031 -8 9 C-6.70073668 7.52750157 -5.40868848 6.04859579 -4.125 4.5625 C-1.12307692 1.12307692 -1.12307692 1.12307692 0 0 Z " fill="#FDFAFD" transform="translate(204,104)"/>
<path d="M0 0 C132 0 264 0 400 0 C400 0.99 400 1.98 400 3 C268 3 136 3 0 3 C0 2.01 0 1.02 0 0 Z " fill="#EF46DE" transform="translate(0,397)"/>
<path d="M0 0 C2.88712126 2.88712126 3.6482959 6.44569899 4.875 10.25 C5.27416626 11.46574707 5.27416626 11.46574707 5.68139648 12.70605469 C7.58348048 18.55561044 9.28727994 24.44765169 10.92724609 30.37597656 C12.03326806 34.11238759 13.29601662 37.75778652 14.62109375 41.421875 C15.29096313 43.2795752 15.29096313 43.2795752 15.97436523 45.17480469 C16.31282471 46.10711914 16.65128418 47.03943359 17 48 C26.61384418 48.04627741 36.22765021 48.08184573 45.84158134 48.10362434 C50.30539755 48.11407534 54.76913772 48.12825844 59.23291016 48.15087891 C63.53820674 48.17256052 67.84343005 48.1845587 72.14877701 48.18975449 C73.79387694 48.19345869 75.43897273 48.20069177 77.0840416 48.21146011 C79.38277704 48.22591299 81.68120713 48.22798058 83.97998047 48.22705078 C85.2901413 48.231492 86.60030212 48.23593323 87.95016479 48.24050903 C91.10940312 48.32348265 91.10940312 48.32348265 93 46 C93 47.32 93 48.64 93 50 C66.93 50 40.86 50 14 50 C13 48 13 48 12.625 44.75 C12.21281022 41.07411517 12.21281022 41.07411517 10.625 38.375 C7.29164594 31.45188003 6.20503347 23.54851157 5 16 C4.34 16 3.68 16 3 16 C2.48319016 18.54288736 1.98504724 21.08494171 1.53515625 23.640625 C1.37917969 24.50171875 1.22320312 25.3628125 1.0625 26.25 C0.83240234 27.55710938 0.83240234 27.55710938 0.59765625 28.890625 C0.40042969 29.58671875 0.20320313 30.2828125 0 31 C-0.66 31.33 -1.32 31.66 -2 32 C-2 30.35 -2 28.7 -2 27 C-31.04 27 -60.08 27 -90 27 C-90 26.67 -90 26.34 -90 26 C-84.94276441 25.17050265 -80.03680648 24.85437938 -74.90917969 24.8581543 C-74.13269073 24.85467987 -73.35620178 24.85120544 -72.55618286 24.84762573 C-70.88276625 24.84031566 -69.20934024 24.83494521 -67.53591156 24.83133507 C-64.88805904 24.82412669 -62.24038724 24.80843211 -59.59259033 24.78999329 C-52.0689119 24.73769756 -44.54534113 24.68947882 -37.02148438 24.67407227 C-32.40964601 24.6640121 -27.79827614 24.63475296 -23.18662262 24.59275246 C-21.43075343 24.58042447 -19.67481822 24.57532448 -17.91890717 24.57755089 C-15.46983856 24.57989443 -13.02212768 24.55781711 -10.57324219 24.5300293 C-9.48382828 24.53993141 -9.48382828 24.53993141 -8.37240601 24.55003357 C-5.17694065 24.49031606 -3.44009007 24.40355283 -1.03839111 22.20124817 C0.42867673 19.09126353 0.19537811 16.38655389 0 13 C0.66 13 1.32 13 2 13 C1.81535634 8.65815798 1.81535634 8.65815798 0 5 C-0.04063832 3.33382885 -0.042721 1.66611905 0 0 Z " fill="#DE3ED0" transform="translate(195,144)"/>
<path d="M0 0 C0.99 0.33 1.98 0.66 3 1 C4.1875 4.0625 4.1875 4.0625 5 7 C7.97 7 10.94 7 14 7 C14 6.01 14 5.02 14 4 C30.83 4 47.66 4 65 4 C64.67 4.99 64.34 5.98 64 7 C66.31 7.33 68.62 7.66 71 8 C71 8.33 71 8.66 71 9 C48.56 9 26.12 9 3 9 C0 2 0 2 0 0 Z " fill="#ED36D4" transform="translate(224,162)"/>
<path d="M0 0 C2.88712126 2.88712126 3.6482959 6.44569899 4.875 10.25 C5.14111084 11.06049805 5.40722168 11.87099609 5.68139648 12.70605469 C7.58348048 18.55561044 9.28727994 24.44765169 10.92724609 30.37597656 C12.03326806 34.11238759 13.29601662 37.75778652 14.62109375 41.421875 C15.06767334 42.6603418 15.51425293 43.89880859 15.97436523 45.17480469 C16.31282471 46.10711914 16.65128418 47.03943359 17 48 C26.61384418 48.04627741 36.22765021 48.08184573 45.84158134 48.10362434 C50.30539755 48.11407534 54.76913772 48.12825844 59.23291016 48.15087891 C63.53820674 48.17256052 67.84343005 48.1845587 72.14877701 48.18975449 C73.79387694 48.19345869 75.43897273 48.20069177 77.0840416 48.21146011 C79.38277704 48.22591299 81.68120713 48.22798058 83.97998047 48.22705078 C85.2901413 48.231492 86.60030212 48.23593323 87.95016479 48.24050903 C91.10940312 48.32348265 91.10940312 48.32348265 93 46 C93 47.32 93 48.64 93 50 C66.93 50 40.86 50 14 50 C13 48 13 48 12.625 44.75 C12.21281022 41.07411517 12.21281022 41.07411517 10.625 38.375 C7.29164594 31.45188003 6.20503347 23.54851157 5 16 C3.68 16 2.36 16 1 16 C1.01160156 15.28972656 1.02320313 14.57945312 1.03515625 13.84765625 C1.04417969 12.92855469 1.05320313 12.00945312 1.0625 11.0625 C1.07990234 9.68771484 1.07990234 9.68771484 1.09765625 8.28515625 C1.25949049 6.03406673 1.25949049 6.03406673 0 5 C-0.04063832 3.33382885 -0.042721 1.66611905 0 0 Z " fill="#DD59D0" transform="translate(195,144)"/>
<path d="M0 0 C5.54300148 4.75114412 7.01232679 12.04314376 8.9375 18.78125 C9.92168585 22.04445803 9.92168585 22.04445803 11.58203125 25.0703125 C13.01282692 28.0265019 13.46798606 30.12619369 13.6875 33.375 C13.78611328 34.68597656 13.78611328 34.68597656 13.88671875 36.0234375 C13.92410156 36.67570312 13.96148437 37.32796875 14 38 C12.68 38 11.36 38 10 38 C9.401875 38.78375 8.80375 39.5675 8.1875 40.375 C5.41930911 43.69682906 3.13802921 44.06308773 -1 45 C-1.495 45.495 -1.495 45.495 -2 46 C-3.66617115 46.04063832 -5.33388095 46.042721 -7 46 C-8.32 43.36 -9.64 40.72 -11 38 C-11.99 38 -12.98 38 -14 38 C-13.690625 36.9790625 -13.690625 36.9790625 -13.375 35.9375 C-12.90052608 32.22078759 -13.96129463 29.57054973 -15 26 C-14.5625 23.78515625 -14.5625 23.78515625 -14 22 C-6 40.97233202 -6 40.97233202 -6 45 C-0.57017472 42.06234405 -0.57017472 42.06234405 4 38 C8.57142857 34 8.57142857 34 12 34 C11.08478337 31.54111798 10.16811812 29.08279893 9.25 26.625 C8.97704102 25.89345703 8.70408203 25.16191406 8.42285156 24.40820312 C6.92547814 20.41167995 5.3819979 16.44399492 3.75 12.5 C2.07892924 8.39195104 0.96166687 4.32750091 0 0 Z " fill="#DF51CD" transform="translate(254,250)"/>
<path d="M0 0 C0.99 0.33 1.98 0.66 3 1 C4.04777631 3.47334238 4.90161461 5.82027892 5.6875 8.375 C5.91244141 9.06078125 6.13738281 9.7465625 6.36914062 10.453125 C7.31470473 13.40765356 8 15.8803551 8 19 C7.01 19 6.02 19 5 19 C3.5216774 16.04335481 3.93967217 13.25770263 4 10 C2.68 10.99 1.36 11.98 0 13 C0 11.02 0 9.04 0 7 C-0.99 7.33 -1.98 7.66 -3 8 C-5.1875 7.5625 -5.1875 7.5625 -7 7 C-7.268125 7.598125 -7.53625 8.19625 -7.8125 8.8125 C-10.13538142 13.09149209 -12.56531229 14.24675137 -17 16 C-18.051875 16.70125 -19.10375 17.4025 -20.1875 18.125 C-23 20 -23 20 -25 20 C-25.268125 20.61875 -25.53625 21.2375 -25.8125 21.875 C-27 24 -27 24 -30 26 C-32.1875 25.625 -32.1875 25.625 -34 25 C-28.76266118 21.03823081 -23.47943019 17.14497142 -18.15234375 13.3046875 C-15.76922352 11.56238151 -13.41310132 9.79798134 -11.06640625 8.0078125 C-10.39295166 7.49951904 -9.71949707 6.99122559 -9.02563477 6.4675293 C-7.69043132 5.45900573 -6.36129567 4.44239084 -5.03881836 3.41723633 C-3.41586702 2.19879218 -1.71240926 1.08914265 0 0 Z " fill="#E54CD4" transform="translate(225,237)"/>
<path d="M0 0 C1.50559539 1.96382007 2.89131683 3.78263366 4 6 C20.83 6.33 37.66 6.66 55 7 C52.75 18.25 52.75 18.25 51.2734375 22.5703125 C50.9640625 23.48554688 50.6546875 24.40078125 50.3359375 25.34375 C49.86027344 26.72046875 49.86027344 26.72046875 49.375 28.125 C49.05015625 29.08148438 48.7253125 30.03796875 48.390625 31.0234375 C47.59928341 33.35091277 46.80235801 35.6763045 46 38 C45.67 38 45.34 38 45 38 C44.91816516 33.82642318 45.03785903 30.06237297 46 26 C46.144375 25.13375 46.28875 24.2675 46.4375 23.375 C47 21 47 21 49 18 C49.66 18 50.32 18 51 18 C51.020625 16.700625 51.04125 15.40125 51.0625 14.0625 C51.07410156 13.33160156 51.08570313 12.60070312 51.09765625 11.84765625 C51.20561184 9.98267859 51.20561184 9.98267859 50 9 C48.49683231 8.8775669 46.98811833 8.82223715 45.48022461 8.79467773 C44.03884377 8.7647599 44.03884377 8.7647599 42.56834412 8.73423767 C41.523564 8.71752518 40.47878387 8.70081268 39.40234375 8.68359375 C38.33834854 8.66281265 37.27435333 8.64203156 36.17811584 8.62062073 C32.7646456 8.55500746 29.35109571 8.49618577 25.9375 8.4375 C23.62954891 8.39432597 21.321606 8.35071206 19.01367188 8.30664062 C13.34253318 8.19931416 7.67131448 8.09757008 2 8 C0.23537317 4.91190305 0 3.76687864 0 0 Z " fill="#DC5FCF" transform="translate(110,186)"/>
<path d="M0 0 C1.11000791 3.31492157 0.88419222 5.26038234 -0.1875 8.5625 C-0.47109375 9.44679687 -0.7546875 10.33109375 -1.046875 11.2421875 C-1.96832333 13.90834536 -2.94446485 16.54728749 -3.9375 19.1875 C-6.46736609 25.98590463 -8.21818884 32.97701028 -10 40 C-10.66 40 -11.32 40 -12 40 C-11.938125 41.11375 -11.938125 41.11375 -11.875 42.25 C-12.00815772 45.17946991 -12.68143991 46.44044218 -14 49 C-14.38290462 50.99110401 -14.72604615 52.99100513 -15 55 C-14.34 55 -13.68 55 -13 55 C-13 55.66 -13 56.32 -13 57 C-12.01 57.33 -11.02 57.66 -10 58 C-12.97 60.31 -15.94 62.62 -19 65 C-20.18661313 61.44016061 -19.73436612 60.37964664 -18.62890625 56.86328125 C-18.30559326 55.82236328 -17.98228027 54.78144531 -17.64916992 53.70898438 C-17.29056885 52.58814453 -16.93196777 51.46730469 -16.5625 50.3125 C-16.20067627 49.15943359 -15.83885254 48.00636719 -15.46606445 46.81835938 C-12.64390698 37.8781742 -9.71139353 28.97427663 -6.70336914 20.0949707 C-4.89713932 14.7577653 -3.19323483 9.40819189 -1.62426758 3.99609375 C-1 2 -1 2 0 0 Z " fill="#DF54D0" transform="translate(187,190)"/>
<path d="M0 0 C28.71 0 57.42 0 87 0 C85.86655405 10.20101351 85.86655405 10.20101351 84.5625 13.9375 C84.31628906 14.66839844 84.07007813 15.39929688 83.81640625 16.15234375 C83 18 83 18 81 20 C81.48511255 12.48075545 83.02451088 8.4387228 86 1 C58.61 1 31.22 1 3 1 C3.66 4.3 4.32 7.6 5 11 C0 4.33333333 0 4.33333333 0 0 Z " fill="#FEE4FE" transform="translate(105,172)"/>
<path d="M0 0 C0.66 0 1.32 0 2 0 C2 0.99 2 1.98 2 3 C2.99 3.33 3.98 3.66 5 4 C-3.41246467 11.45650277 -12.33952471 18.2408705 -22 24 C-21.1328125 22.046875 -21.1328125 22.046875 -20 20 C-17.875 19.25 -17.875 19.25 -16 19 C-16 18.34 -16 17.68 -16 17 C-15.34 16.67 -14.68 16.34 -14 16 C-14.103125 15.0925 -14.20625 14.185 -14.3125 13.25 C-14 10 -14 10 -12 7.6875 C-8.16785176 5.53191662 -5.36725057 5.35797136 -1 5 C-0.34 4.67 0.32 4.34 1 4 C0.67 2.68 0.34 1.36 0 0 Z " fill="#E940D6" transform="translate(224,204)"/>
<path d="M0 0 C2 1 2 1 2.78125 3.0390625 C3.0184375 3.89242187 3.255625 4.74578125 3.5 5.625 C3.88091797 6.97658203 3.88091797 6.97658203 4.26953125 8.35546875 C4.51058594 9.22816406 4.75164062 10.10085937 5 11 C5.39548031 12.31260642 5.79125781 13.62512338 6.1875 14.9375 C7 18 7 18 7 21 C43.63 21.495 43.63 21.495 81 22 C81 22.33 81 22.66 81 23 C56.58 23 32.16 23 7 23 C1.375 10.625 1.375 10.625 0.6875 5.3125 C0.54699219 4.29800781 0.40648437 3.28351563 0.26171875 2.23828125 C0.17535156 1.49964844 0.08898437 0.76101562 0 0 Z " fill="#FEAEF9" transform="translate(205,170)"/>
<path d="M0 0 C1.32 0.33 2.64 0.66 4 1 C3.25556641 1.60134766 3.25556641 1.60134766 2.49609375 2.21484375 C-3.09080168 6.89002569 -8.70996615 12.10187204 -11.84375 18.8046875 C-12.09017197 22.26691614 -10.7575418 25.24552151 -9.5625 28.4375 C-7.99181939 32.674588 -6.63718499 36.40729294 -7 41 C-7.66 41 -8.32 41 -9 41 C-9.28875 39.9275 -9.5775 38.855 -9.875 37.75 C-10.79207336 34.21938405 -10.79207336 34.21938405 -12.0625 32.0625 C-13.26094507 29.42592085 -13.48761083 26.82269574 -13.76953125 23.9609375 C-13.97183789 21.83614711 -13.97183789 21.83614711 -14.75 19.1875 C-15 17 -15 17 -13.6875 15.1875 C-12 14 -12 14 -10 14 C-8.86202158 11.80532733 -7.90891012 9.72673037 -7.125 7.375 C-5.77818394 4.53172165 -4.80085052 4.2253721 -2 3 C-1.34 2.01 -0.68 1.02 0 0 Z " fill="#DF58CF" transform="translate(202,103)"/>
<path d="M0 0 C0.65043719 1.72744016 1.29514844 3.4570369 1.9375 5.1875 C2.29714844 6.15042969 2.65679687 7.11335937 3.02734375 8.10546875 C3.91156562 10.7368278 4.52568586 13.26894908 5 16 C5.66 16 6.32 16 7 16 C7 18.31 7 20.62 7 23 C7.66 23 8.32 23 9 23 C9.19335938 23.65226562 9.38671875 24.30453125 9.5859375 24.9765625 C9.97652344 26.28753906 9.97652344 26.28753906 10.375 27.625 C10.78105469 28.99398437 10.78105469 28.99398437 11.1953125 30.390625 C11.81683906 32.40606064 12.51748149 34.39720003 13.25 36.375 C14.05490651 39.19217279 13.81195594 40.27414792 13 43 C12.39226026 41.5222978 11.78905496 40.04273073 11.1875 38.5625 C10.85105469 37.73878906 10.51460937 36.91507813 10.16796875 36.06640625 C9.24525613 33.64389986 8.40212476 31.23062537 7.59375 28.76953125 C5.6854719 22.97337076 3.51472991 17.27934166 1.34179688 11.578125 C1.03951172 10.77117187 0.73722656 9.96421875 0.42578125 9.1328125 C0.15161377 8.40980957 -0.12255371 7.68680664 -0.4050293 6.94189453 C-1 5 -1 5 -1 2 C-1.99 2 -2.98 2 -4 2 C-4 2.66 -4 3.32 -4 4 C-4.99 4.33 -5.98 4.66 -7 5 C-6.625 3.0625 -6.625 3.0625 -6 1 C-4 0 -4 0 0 0 Z " fill="#E257CF" transform="translate(238,201)"/>
<path d="M0 0 C0.66 1.32 1.32 2.64 2 4 C24.44 4 46.88 4 70 4 C69.67 5.98 69.34 7.96 69 10 C68.34 10.33 67.68 10.66 67 11 C67 9.02 67 7.04 67 5 C45.22 5 23.44 5 1 5 C0.67 3.35 0.34 1.7 0 0 Z " fill="#FEE1FD" transform="translate(225,168)"/>
<path d="M0 0 C0.99 0.33 1.98 0.66 3 1 C3.66 2.98 4.32 4.96 5 7 C37.67 7.495 37.67 7.495 71 8 C71 8.33 71 8.66 71 9 C48.56 9 26.12 9 3 9 C0 2 0 2 0 0 Z " fill="#D743CA" transform="translate(224,162)"/>
<path d="M0 0 C-0.33 1.32 -0.66 2.64 -1 4 C-1.99 4 -2.98 4 -4 4 C-4.185625 4.598125 -4.37125 5.19625 -4.5625 5.8125 C-6.72686659 9.10610133 -9.33760506 9.75851019 -13 11 C-15.75 11.375 -15.75 11.375 -18 11 C-19.625 9.5625 -19.625 9.5625 -21 8 C-21.99 7.67 -22.98 7.34 -24 7 C-25.6875 5.4375 -25.6875 5.4375 -27 4 C-26.67 3.34 -26.34 2.68 -26 2 C-22.7 4.31 -19.4 6.62 -16 9 C-11.71664465 6.85832233 -8.1043196 4.26871899 -4.2421875 1.4609375 C-2 0 -2 0 0 0 Z " fill="#DD56CF" transform="translate(165,282)"/>
<path d="M0 0 C0.66 1.32 1.32 2.64 2 4 C3.32 4 4.64 4 6 4 C6 4.99 6 5.98 6 7 C7.65 6.67 9.3 6.34 11 6 C6.69230769 10.92307692 6.69230769 10.92307692 3.1875 11.3125 C2.465625 11.209375 1.74375 11.10625 1 11 C1 10.34 1 9.68 1 9 C0.34 9 -0.32 9 -1 9 C-0.67 6.03 -0.34 3.06 0 0 Z " fill="#EA38D7" transform="translate(173,236)"/>
<path d="M0 0 C3.40756081 2.27170721 3.8695411 3.17383143 5 7 C5.125 10.3125 5.125 10.3125 5 13 C5.66 13 6.32 13 7 13 C9.4793824 19.24273068 10.31985731 24.28299653 10 31 C9.67 31 9.34 31 9 31 C8.76925781 30.16339844 8.53851563 29.32679688 8.30078125 28.46484375 C6.08149971 20.54385076 3.63116948 12.76038368 0.953125 4.984375 C0 2 0 2 0 0 Z " fill="#DF5BD3" transform="translate(214,131)"/>
<path d="M0 0 C1.41265059 3.79374718 0.5530586 6.2950161 -0.65234375 10.078125 C-1.01650391 11.23828125 -1.38066406 12.3984375 -1.75585938 13.59375 C-2.14580078 14.8003125 -2.53574219 16.006875 -2.9375 17.25 C-3.32357422 18.47203125 -3.70964844 19.6940625 -4.10742188 20.953125 C-5.06253858 23.97176544 -6.0270364 26.987074 -7 30 C-7.99245437 26.89972023 -7.97917809 24.99656571 -7.07421875 21.8828125 C-6.85443359 21.11066406 -6.63464844 20.33851563 -6.40820312 19.54296875 C-6.17037109 18.74503906 -5.93253906 17.94710938 -5.6875 17.125 C-5.46126953 16.33480469 -5.23503906 15.54460937 -5.00195312 14.73046875 C-1.77337598 3.54675197 -1.77337598 3.54675197 0 0 Z " fill="#DE5ED1" transform="translate(146,248)"/>
<path d="M0 0 C0.99 0 1.98 0 3 0 C3.83919398 2.26882087 4.67151724 4.53977027 5.5 6.8125 C5.73847656 7.45509766 5.97695312 8.09769531 6.22265625 8.75976562 C7.27068746 11.64933739 8 13.90076061 8 17 C7.34 17 6.68 17 6 17 C5.67 14.69 5.34 12.38 5 10 C4.34 10 3.68 10 3 10 C2.67 8.02 2.34 6.04 2 4 C0.02 4.33 -1.96 4.66 -4 5 C-4 4.34 -4 3.68 -4 3 C-2.68 2.67 -1.36 2.34 0 2 C0 1.34 0 0.68 0 0 Z " fill="#FBCDF9" transform="translate(234,203)"/>
<path d="M0 0 C0.66 0.33 1.32 0.66 2 1 C-0.96655912 5.33574025 -3.10514738 6.40385241 -8 8 C-9.22527948 9.95021083 -9.22527948 9.95021083 -10 12 C-13 14 -13 14 -15.1875 13.625 C-15.785625 13.41875 -16.38375 13.2125 -17 13 C-16.52691406 12.64808594 -16.05382812 12.29617188 -15.56640625 11.93359375 C-10.32583535 8.02104276 -5.15071505 4.02995761 0 0 Z " fill="#E165D1" transform="translate(208,249)"/>
<path d="M0 0 C0.66 0.33 1.32 0.66 2 1 C0.5968277 4.33434242 -0.96989805 6.05526479 -3.875 8.1875 C-4.55304688 8.69667969 -5.23109375 9.20585937 -5.9296875 9.73046875 C-8.01333948 11.00817987 -9.58660617 11.66172095 -12 12 C-12.66 11.67 -13.32 11.34 -14 11 C-9.38 7.37 -4.76 3.74 0 0 Z " fill="#FBDAF9" transform="translate(198,231)"/>
<path d="M0 0 C2 1 2 1 2.78125 3.0390625 C3.0184375 3.89242187 3.255625 4.74578125 3.5 5.625 C3.88091797 6.97658203 3.88091797 6.97658203 4.26953125 8.35546875 C4.51058594 9.22816406 4.75164062 10.10085937 5 11 C5.39548031 12.31260642 5.79125781 13.62512338 6.1875 14.9375 C7 18 7 18 7 21 C8.98 21 10.96 21 13 21 C13 21.33 13 21.66 13 22 C10.69 22 8.38 22 6 22 C0.44419134 7.40318907 0.44419134 7.40318907 0 0 Z " fill="#FBC8F9" transform="translate(205,170)"/>
<path d="M0 0 C0.66 0.33 1.32 0.66 2 1 C0.375 3.9375 0.375 3.9375 -2 7 C-5.25 7.875 -5.25 7.875 -8 8 C-8 8.66 -8 9.32 -8 10 C-9.98 10.66 -11.96 11.32 -14 12 C-9.73412126 7.45890328 -4.96387672 3.75264754 0 0 Z " fill="#DF58D3" transform="translate(182,268)"/>
<path d="M0 0 C2.73310675 8.23676008 -3.76747909 18.56392423 -7 26 C-8.39763118 23.20473763 -7.55735415 22.00209969 -6.6015625 19.0625 C-6.28703125 18.08539063 -5.9725 17.10828125 -5.6484375 16.1015625 C-5.31070313 15.07804688 -4.97296875 14.05453125 -4.625 13 C-4.295 11.97648438 -3.965 10.95296875 -3.625 9.8984375 C-1.17569314 2.35138628 -1.17569314 2.35138628 0 0 Z " fill="#E161D4" transform="translate(187,190)"/>
<path d="M0 0 C2.8023603 2.38632362 3.69868887 4.48422708 4.6875 8 C4.93886719 8.86625 5.19023437 9.7325 5.44921875 10.625 C6 13 6 13 6 16 C5.01 16 4.02 16 3 16 C2.49411853 14.08487728 1.99551609 12.16783078 1.5 10.25 C1.2215625 9.18265625 0.943125 8.1153125 0.65625 7.015625 C0 4 0 4 0 0 Z " fill="#DF44D5" transform="translate(233,256)"/>
<path d="M0 0 C0.33 0.66 0.66 1.32 1 2 C0.0625 4.125 0.0625 4.125 -1 6 C-1.66 6 -2.32 6 -3 6 C-3.20625 6.721875 -3.4125 7.44375 -3.625 8.1875 C-5.46224856 11.94550842 -7.69242463 13.45041065 -11 16 C-11.66 16.66 -12.32 17.32 -13 18 C-12.41362789 14.9468068 -11.56448399 13.14213625 -9.53125 10.80078125 C-9.04269531 10.23166016 -8.55414063 9.66253906 -8.05078125 9.07617188 C-7.28314453 8.2031543 -7.28314453 8.2031543 -6.5 7.3125 C-5.73236328 6.42208008 -5.73236328 6.42208008 -4.94921875 5.51367188 C-1.35379464 1.35379464 -1.35379464 1.35379464 0 0 Z " fill="#FDC8FA" transform="translate(202,106)"/>
<path d="M0 0 C2.33698908 3.50548362 3.45185838 7.0809881 4.6875 11.0625 C5.04424805 12.16174805 5.04424805 12.16174805 5.40820312 13.28320312 C7.12194293 18.75611413 7.12194293 18.75611413 6 21 C0.3187928 7.98960183 0.3187928 7.98960183 -1 1 C-0.67 0.67 -0.34 0.34 0 0 Z " fill="#F9BAF5" transform="translate(238,263)"/>
<path d="M0 0 C0 0.66 0 1.32 0 2 C-1.67465856 3.38137335 -3.41689132 4.68146716 -5.1875 5.9375 C-6.15042969 6.62714844 -7.11335937 7.31679687 -8.10546875 8.02734375 C-10.68839434 9.78763717 -13.30070736 11.42582385 -16 13 C-15.67 12.01 -15.34 11.02 -15 10 C-14.34 10 -13.68 10 -13 10 C-12.95875 9.401875 -12.9175 8.80375 -12.875 8.1875 C-12 6 -12 6 -9.0625 4.25 C-6 3 -6 3 -4 3 C-4 2.34 -4 1.68 -4 1 C-2 0 -2 0 0 0 Z " fill="#D857CC" transform="translate(200,229)"/>
<path d="M0 0 C2 1 2 1 3.2890625 4.38671875 C3.74251417 5.81775888 4.18746309 7.25151403 4.625 8.6875 C4.85445312 9.39583984 5.08390625 10.10417969 5.3203125 10.83398438 C6.61643846 15.01167609 7.26479755 18.57509353 7 23 C4.68518983 19.52778475 3.58998108 16.0076566 2.375 12.0625 C2.14554688 11.34642578 1.91609375 10.63035156 1.6796875 9.89257812 C0.59491265 6.40903032 0 3.68101033 0 0 Z " fill="#FDCDFA" transform="translate(191,126)"/>
<path d="M0 0 C2.21391761 2.21391761 3.03968765 4.00263901 4.25 6.875 C4.62640625 7.73867188 5.0028125 8.60234375 5.390625 9.4921875 C6 12 6 12 5.109375 14.3203125 C4.74328125 14.87460937 4.3771875 15.42890625 4 16 C3.01 16 2.02 16 1 16 C1.20625 15.319375 1.4125 14.63875 1.625 13.9375 C2.10166963 10.20358791 1.10355636 7.5703294 0 4 C0 2.68 0 1.36 0 0 Z " fill="#DF46D3" transform="translate(239,272)"/>
<path d="M0 0 C-1.95405518 1.50587739 -3.91281284 3.00478644 -5.875 4.5 C-6.43058594 4.92925781 -6.98617187 5.35851562 -7.55859375 5.80078125 C-11.7734375 9 -11.7734375 9 -14 9 C-14 7.68 -14 6.36 -14 5 C-12.02 4.67 -10.04 4.34 -8 4 C-7.67 3.01 -7.34 2.02 -7 1 C-4.05697101 -0.96201933 -3.48011144 -1.16003715 0 0 Z " fill="#FCDFFD" transform="translate(196,259)"/>
<path d="M0 0 C3.36338044 3.36338044 4 6.28835716 4 11 C1.74339496 12.60337726 -0.53164435 13.76582217 -3 15 C-3 13.68 -3 12.36 -3 11 C-2.01 11 -1.02 11 0 11 C0 7.37 0 3.74 0 0 Z " fill="#F9C7F6" transform="translate(262,273)"/>
<path d="M0 0 C0.33 0 0.66 0 1 0 C1 3.96 1 7.92 1 12 C0.34 12 -0.32 12 -1 12 C-1.33 11.01 -1.66 10.02 -2 9 C-2.99 9 -3.98 9 -5 9 C-5 7.35 -5 5.7 -5 4 C-4.01 4.33 -3.02 4.66 -2 5 C-1.34 3.35 -0.68 1.7 0 0 Z " fill="#E43FD4" transform="translate(137,274)"/>
<path d="M0 0 C0.66 0.33 1.32 0.66 2 1 C2.33266291 7.20970773 1.45029331 11.28264895 -1 17 C-1.33 17 -1.66 17 -2 17 C-2.08183484 12.82642318 -1.96214097 9.06237297 -1 5 C-0.814375 4.071875 -0.62875 3.14375 -0.4375 2.1875 C-0.293125 1.465625 -0.14875 0.74375 0 0 Z " fill="#E04FD3" transform="translate(157,207)"/>
<path d="M0 0 C0.33 1.32 0.66 2.64 1 4 C0.34 4 -0.32 4 -1 4 C-1.0825 4.845625 -1.165 5.69125 -1.25 6.5625 C-2.15733853 10.72113491 -3.76541273 13.39582699 -6 17 C-6.66 17 -7.32 17 -8 17 C-6.3341708 10.83643195 -3.12194714 5.51740344 0 0 Z " fill="#DB5BCD" transform="translate(296,172)"/>
<path d="M0 0 C0.33 0 0.66 0 1 0 C1.19622241 4.21878192 0.80230168 7.17010894 -1 11 C-1.66 11 -2.32 11 -3 11 C-3.33 12.65 -3.66 14.3 -4 16 C-5.34084698 12.35085947 -4.64228567 10.38045311 -3.125 6.875 C-2.75632813 6.00617188 -2.38765625 5.13734375 -2.0078125 4.2421875 C-1.36643873 2.81525516 -0.69964222 1.39928445 0 0 Z " fill="#FCDCFC" transform="translate(166,193)"/>
<path d="M0 0 C1.32 0.33 2.64 0.66 4 1 C2.25395451 2.4630657 0.50300547 3.9202808 -1.25 5.375 C-2.22453125 6.18710938 -3.1990625 6.99921875 -4.203125 7.8359375 C-6.4552682 9.57851757 -8.40711386 10.876416 -11 12 C-10.25 10.0625 -10.25 10.0625 -9 8 C-6.875 7.25 -6.875 7.25 -5 7 C-5 6.34 -5 5.68 -5 5 C-3.35 4.34 -1.7 3.68 0 3 C0 2.01 0 1.02 0 0 Z " fill="#DD50CE" transform="translate(213,216)"/>
<path d="M0 0 C2 1 2 1 3.03515625 3.4765625 C4.8339454 8.98920148 6.4740265 14.21429148 7 20 C6.01 19.67 5.02 19.34 4 19 C3.896875 17.80375 3.79375 16.6075 3.6875 15.375 C3.21180932 11.40857915 1.81901906 8.55895034 0 5 C-0.1875 2.125 -0.1875 2.125 0 0 Z " fill="#DB49CB" transform="translate(204,174)"/>
<path d="M0 0 C0.33 0 0.66 0 1 0 C1 4.29 1 8.58 1 13 C-0.32 12.34 -1.64 11.68 -3 11 C-2.32829194 7.1936543 -1.27253436 3.64793184 0 0 Z " fill="#FBCCFA" transform="translate(140,272)"/>
<path d="M0 0 C1.46123585 4.63600725 0.53795041 8.47472184 -1 13 C-3.125 16.0625 -3.125 16.0625 -5 18 C-4.42934122 11.58008874 -2.32655091 5.98410537 0 0 Z " fill="#FCCFF9" transform="translate(160,210)"/>
<path d="M0 0 C1.64826111 2.96687001 2.44271087 5.65626525 3 9 C1.125 9.625 1.125 9.625 -1 10 C-1.66 9.34 -2.32 8.68 -3 8 C-2.09456151 5.28368454 -1.07525194 2.65228812 0 0 Z " fill="#E43BD9" transform="translate(217,123)"/>
<path d="M0 0 C0.66 0.33 1.32 0.66 2 1 C0.41078475 6.36095277 -1.18972938 11.70843973 -3 17 C-4.56393356 13.02623171 -3.36145292 10.18622097 -2.0625 6.25 C-1.68222656 5.07953125 -1.30195313 3.9090625 -0.91015625 2.703125 C-0.60980469 1.81109375 -0.30945313 0.9190625 0 0 Z " fill="#FCCDFA" transform="translate(190,175)"/>
<path d="M0 0 C3.00091319 2.5722113 4.52608532 5.35030652 6 9 C6.1875 12.875 6.1875 12.875 6 16 C3.50063756 13.50063756 2.96276247 11.35191992 1.875 8 C1.52179688 6.9275 1.16859375 5.855 0.8046875 4.75 C0 2 0 2 0 0 Z " fill="#E067D5" transform="translate(254,250)"/>
<path d="M0 0 C2.64 0.33 5.28 0.66 8 1 C8 1.66 8 2.32 8 3 C7.34 3.66 6.68 4.32 6 5 C3.38419521 4.6730244 1.35921863 4.17960932 -1 3 C-0.67 2.01 -0.34 1.02 0 0 Z " fill="#E53BD5" transform="translate(103,165)"/>
<path d="M0 0 C2 2 2 2 2.1953125 4.6015625 C2.17210937 5.59929687 2.14890625 6.59703125 2.125 7.625 C2.10695313 8.62789062 2.08890625 9.63078125 2.0703125 10.6640625 C2.03550781 11.82035156 2.03550781 11.82035156 2 13 C-1.10605509 10.17859686 -1.74025696 8.24246972 -2 4 C-1.0625 1.625 -1.0625 1.625 0 0 Z " fill="#E041D3" transform="translate(254,238)"/>
<path d="M0 0 C1.485 0.99 1.485 0.99 3 2 C3.6875 5.625 3.6875 5.625 4 9 C3.01 9 2.02 9 1 9 C-0.4783226 6.04335481 -0.06032783 3.25770263 0 0 Z " fill="#E941D4" transform="translate(229,247)"/>
<path d="M0 0 C0.66 0 1.32 0 2 0 C6 6.75 6 6.75 6 9 C5.01 9 4.02 9 3 9 C3 7.68 3 6.36 3 5 C2.01 5 1.02 5 0 5 C0 3.35 0 1.7 0 0 Z " fill="#E054D1" transform="translate(102,172)"/>
<path d="M0 0 C0.99 0.495 0.99 0.495 2 1 C2.6328125 3.28515625 2.6328125 3.28515625 3.125 6.0625 C3.29257813 6.98160156 3.46015625 7.90070313 3.6328125 8.84765625 C3.75398437 9.55792969 3.87515625 10.26820313 4 11 C2.68 10.34 1.36 9.68 0 9 C0 6.03 0 3.06 0 0 Z " fill="#FBCAF9" transform="translate(211,124)"/>
<path d="M0 0 C1.21065165 3.63195496 0.62784815 5.06531629 -0.4375 8.6875 C-0.86869141 10.17830078 -0.86869141 10.17830078 -1.30859375 11.69921875 C-1.53675781 12.45847656 -1.76492187 13.21773437 -2 14 C-2.66 14 -3.32 14 -4 14 C-3.53328373 8.58609132 -2.75702189 4.79482068 0 0 Z " fill="#E154D5" transform="translate(192,176)"/>
<path d="M0 0 C0.99 0.33 1.98 0.66 3 1 C3.33 3.31 3.66 5.62 4 8 C3.34 7.67 2.68 7.34 2 7 C2 6.01 2 5.02 2 4 C0.68 4 -0.64 4 -2 4 C-1.34 2.68 -0.68 1.36 0 0 Z " fill="#D95ECA" transform="translate(225,237)"/>
<path d="M0 0 C2.00720923 0.28674418 4.0085944 0.61866701 6 1 C4.71836753 3.56326494 3.57214871 3.82416059 1 5 C-0.11375 5.556875 -0.11375 5.556875 -1.25 6.125 C-1.8275 6.41375 -2.405 6.7025 -3 7 C-3 6.01 -3 5.02 -3 4 C-2.01 4 -1.02 4 0 4 C-0.33 3.01 -0.66 2.02 -1 1 C-0.67 0.67 -0.34 0.34 0 0 Z " fill="#FBDEFB" transform="translate(222,235)"/>
<path d="M0 0 C1.25127906 3.54667178 0.72285053 5.72253438 -0.4375 9.25 C-0.72496094 10.14203125 -1.01242188 11.0340625 -1.30859375 11.953125 C-1.53675781 12.62859375 -1.76492187 13.3040625 -2 14 C-2.33 14 -2.66 14 -3 14 C-2.58846263 9.02906176 -2.20399168 4.55491614 0 0 Z " fill="#E158CC" transform="translate(153,226)"/>
<path d="M0 0 C1.32 0.33 2.64 0.66 4 1 C2.71064081 2.14842923 1.41843421 3.29366227 0.125 4.4375 C-0.59429687 5.07558594 -1.31359375 5.71367188 -2.0546875 6.37109375 C-4 8 -4 8 -6 9 C-6 7.68 -6 6.36 -6 5 C-5.38125 4.731875 -4.7625 4.46375 -4.125 4.1875 C-1.7004767 3.04443152 -1.7004767 3.04443152 0 0 Z " fill="#DD4CCC" transform="translate(202,103)"/>
<path d="M0 0 C0.66 0.33 1.32 0.66 2 1 C0.35 2.98 -1.3 4.96 -3 7 C-4.32 6.67 -5.64 6.34 -7 6 C-4.69 4.02 -2.38 2.04 0 0 Z " fill="#FBCEF9" transform="translate(216,217)"/>
<path d="M0 0 C1.12377697 3.30435084 0.89554742 5.0506862 -0.4375 8.25 C-0.72496094 8.95640625 -1.01242188 9.6628125 -1.30859375 10.390625 C-1.53675781 10.92171875 -1.76492187 11.4528125 -2 12 C-3.41128754 7.40834617 -2.11300128 4.22600255 0 0 Z " fill="#DC4FC9" transform="translate(146,248)"/>
<path d="M0 0 C2 3 2 3 3 6 C1.02 6.66 -0.96 7.32 -3 8 C-3 6.68 -3 5.36 -3 4 C-2.34 3.67 -1.68 3.34 -1 3 C-0.67 2.01 -0.34 1.02 0 0 Z " fill="#E63BD3" transform="translate(291,185)"/>
<path d="M0 0 C2 3 2 3 1.6875 5.5625 C1 8 1 8 0 10 C-0.66 10 -1.32 10 -2 10 C-1.125 2.25 -1.125 2.25 0 0 Z " fill="#F9CDF6" transform="translate(145,256)"/>
<path d="M0 0 C1.65 0.33 3.3 0.66 5 1 C5 1.66 5 2.32 5 3 C3.1875 4.0625 3.1875 4.0625 1 5 C0.01 4.67 -0.98 4.34 -2 4 C-1.34 2.68 -0.68 1.36 0 0 Z " fill="#F8FCF1" transform="translate(224,213)"/>
<path d="M0 0 C0.66 0 1.32 0 2 0 C0.7874262 3.72433382 -0.50859979 7.37802806 -2 11 C-2.95465783 8.83032311 -3.14401212 7.43671207 -2.3984375 5.17578125 C-1.64129615 3.4315257 -0.82390802 1.71372869 0 0 Z " fill="#FDD9FB" transform="translate(290,179)"/>
<path d="M0 0 C1.96301592 3.50538557 2.95902388 7.13351728 4 11 C2 10 2 10 0 8 C-0.36933645 5.24627091 -0.18336678 2.79634339 0 0 Z " fill="#E65CD4" transform="translate(202,164)"/>
<path d="M0 0 C0.33 0.66 0.66 1.32 1 2 C1.66 2 2.32 2 3 2 C3 3.32 3 4.64 3 6 C1.68 6 0.36 6 -1 6 C-1.042721 4.33388095 -1.04063832 2.66617115 -1 1 C-0.67 0.67 -0.34 0.34 0 0 Z " fill="#E73BCE" transform="translate(231,164)"/>
<path d="M0 0 C0.66 0.33 1.32 0.66 2 1 C-0.25 3.0625 -0.25 3.0625 -3 5 C-5.3125 4.75 -5.3125 4.75 -7 4 C-1.7265625 0.77734375 -1.7265625 0.77734375 0 0 Z " fill="#DD51CD" transform="translate(198,258)"/>
<path d="M0 0 C0.66 0.33 1.32 0.66 2 1 C0.68 2.65 -0.64 4.3 -2 6 C-3.32 5.67 -4.64 5.34 -6 5 C-4.02 3.35 -2.04 1.7 0 0 Z " fill="#FDD1FC" transform="translate(182,243)"/>
<path d="M0 0 C0.66 0 1.32 0 2 0 C2 0.66 2 1.32 2 2 C3.65 1.67 5.3 1.34 7 1 C5.37660195 2.70884005 3.70680947 4.37446717 2 6 C1.34 6 0.68 6 0 6 C0 4.02 0 2.04 0 0 Z " fill="#E14FD2" transform="translate(177,241)"/>
<path d="M0 0 C1.32 0 2.64 0 4 0 C4.1875 2.875 4.1875 2.875 4 6 C3.01 6.66 2.02 7.32 1 8 C1.020625 7.05125 1.04125 6.1025 1.0625 5.125 C1.22551826 2.09333717 1.22551826 2.09333717 0 0 Z " fill="#D552CC" transform="translate(160,194)"/>
<path d="M0 0 C0.99 0.33 1.98 0.66 3 1 C4.1875 4.5625 4.1875 4.5625 5 8 C4.01 8 3.02 8 2 8 C1.34 5.36 0.68 2.72 0 0 Z " fill="#E063D2" transform="translate(224,162)"/>
<path d="M0 0 C0.33 0.66 0.66 1.32 1 2 C0.0625 4.125 0.0625 4.125 -1 6 C-1.66 6 -2.32 6 -3 6 C-3.33 6.66 -3.66 7.32 -4 8 C-4.66 7.67 -5.32 7.34 -6 7 C-4.02 4.69 -2.04 2.38 0 0 Z " fill="#F7BCF3" transform="translate(202,106)"/>
<path d="M0 0 C2.89932357 2.39509338 3.50168276 4.31245243 4 8 C3.01 7.67 2.02 7.34 1 7 C0.67 4.69 0.34 2.38 0 0 Z " fill="#E366D8" transform="translate(233,256)"/>
<path d="M0 0 C0.33 0.99 0.66 1.98 1 3 C-1.375 4.5625 -1.375 4.5625 -4 6 C-4.66 5.67 -5.32 5.34 -6 5 C-4.02 3.35 -2.04 1.7 0 0 Z " fill="#FBC7F7" transform="translate(207,224)"/>
<path d="M0 0 C0.33 0 0.66 0 1 0 C2.42258812 3.82320557 3.24042276 6.91281305 3 11 C0.17661571 7.8083482 -0.62384955 5.23169259 -1 1 C-0.67 0.67 -0.34 0.34 0 0 Z " fill="#E453D2" transform="translate(211,117)"/>
</svg>
